<mxfile host="Electron" agent="Mozilla/5.0 (Windows NT 10.0; Win64; x64) AppleWebKit/537.36 (KHTML, like Gecko) draw.io/27.0.9 Chrome/134.0.6998.205 Electron/35.4.0 Safari/537.36" version="27.0.9">
  <diagram name="Page-1" id="1DLh2_A_8W3suiWnJ2vy">
    <mxGraphModel dx="1783" dy="1061" grid="1" gridSize="10" guides="1" tooltips="1" connect="1" arrows="1" fold="1" page="1" pageScale="1" pageWidth="1100" pageHeight="850" math="0" shadow="0">
      <root>
        <mxCell id="0" />
        <mxCell id="1" parent="0" />
        <mxCell id="3T2z69GOJzA7XUMwXSeU-1" value="" style="shape=image;verticalLabelPosition=bottom;labelBackgroundColor=default;verticalAlign=top;aspect=fixed;imageAspect=0;image=data:image/png,iVBORw0KGgoAAAANSUhEUgAAAzkAAAH8CAYAAADyqGE3AAAAAXNSR0IArs4c6QAAAARnQU1BAACxjwv8YQUAAAAJcEhZcwAADsMAAA7DAcdvqGQAAJ7sSURBVHhe7f0PdBzXfSd6fkEIFD0Ti4xH9ptRxiOJQhNEqPYmtLgewBnryRS0AsjNgDsGtEdJEHg9gz7inEd37zHxLErk8BAm7SX3BS3OOdQDNBwjyBnvTjMnhN8hAa0gRk+ZMZCEMvxGbRoEG6TFOFLmPSsxKWUUivjTe3+3bnVXV1f1H6ABdDe+H6rUVbeqb/3pBnB/dW/dW5O8ezMJl2QyKylLrm0KeT8REREREVEhampqzFw2r3VZQU4xwYvftgxyiIiIiIioVPyCHHe6vZwKcgoNWPIvmxkiIiIiIqISccc5fgGO0EFOIQGO/7yZUdz5+OVLRERERESUT85AxrEqM70GG8x8BglOfuWhJrOUDlbk1Zpk3p6stMXFxdT8g/W/kbEs84VMDwX+mWd6vmmp75OJ+8w9VdI+eX3yT+thn7w++af1sE9en/wT95l74vXJPXGfuSden/xTvve64wh7+Z888sXUvPrPMVlpdsxSs/jxO9aSYa8UXvPy4szA61X4zRMREREREeXirpmx2fNer/Zmet4Z5HgFJulX/aKXs9dlvgq/eSIiIiIiolzs4EV4zXu9pufV5BXkZL9mpvnNZ77qF81OIyIiIiIiyscOWIQ9mzuwcc3bQU6uYEXmneney3oxI935SkRERERE5EViBjtIsTmDlsxXE8g40rOWJchxBiIyby/Li72cTnN2MgA9b6fbr8555ysREREREVE+zoDFfnVOYsOGzDQ7Xc87gxznq8xar5mT1cNB5rJzvfovY1nnp/4REREREREVQoUp1qsjgLGDmg0bNmS8qv9S86n32EFOKiDR89kBjh3MLCwsqmkhtSwBj56Xf47t1X/61c6TiIiIiIioEBkBiyOI2VCzQc/X1lqv9iTbWNuaqZAgx6q9keBmEfPz89brwrxJ96rNSU9WnvqFiIiIiIgogx0zCAlQrFf9khG42AGNBDj31N6De+6pNcvWq7zH3q5m4c5PVb7+AY5MzgBnfn4B3z75P+vtiYiIiIiIVtv/M/xV1N1TpwMdO8hxBjqpIMeasgMcmSTIkeBmbm4OcyrQOfU//Tv0vzRgdkFERERERLQ6Il8P4X/417+DjRvrMgKddI2Pmsy2ntKBTrqWR57HISIiIiIiWitWHwHpx2oyH58BNsiMU3qllS6vzjdLZkRERERERGvF7gxtYdEKdpwxjEy6JsdasF7Ty/aUXl5MWoEOERERERHRWsns7TldISMkLau5miSKR7b/96ngxnpzep6IiIiIiGitpAMbuyLGjlmswCcjyLEDGHlN/OSP1ate1MvOiYiIiIiIaK3o4EZP3kPZ1Mz/3Q31mq6psTe0Xq0oSbqOnpubx925OXz88cc48z9/r6De1Sb++PuYeT2KDR/MqqV8wVENFu+rR8OTYTR/+Z+bNCIiIiIiojTpXe13f2cf7r13o+5hTSYZN8caM8d0JS1Bjh3g2MGNNaWX3UHOywP/n7xBjgQ4NW92o+lXbpmUwky+uwXJx4cY6BARERERURYJcn7nt/45Nm261+pGus50I71BupK2gpyM3tWc8zY7+NH/9LxZkcfV8f7CA5x7PwW0vQb8o8fxTx+4hSuvvWRWEBERERERZZK4xK6cScUrJlaRV8+OB5yTzSstlw0f3sBc8h4s/tLDQMsfAY9/F6i7z6x12PRpYO8bwD/8DSRrN+H2wmYsfvgzs5KIiIiIiCqZDND5wx/+0Cxlk3WyTTHSsYlj3lTKiFSQYye4Zb3ZZzu3O4sb8Yv5T+HuY/9vzP3NNbWnOuBXnzNrjU2fUQHOHwObA0i+tg+33/lT3E3em2MfYwiZkUztKTRmVmWQ7b6Il+RRoNmX8EV7Pp+xkCPvkMpFJ7r26cxL1tnb2Wbx0hcd23/xJZUiCjl2v+N2pK+pZRxHMZ8DEREREVWNt956C01f/A3PQEfSZJ1sUwy/Ghx7yqrJcZIN3LzSvGxQkdSmDX+Hmo//GgtbduhOBfDLjWat8on/Dvi/qgDnvkeQ/ONn8be3/1oHOPk1I5pIn8BAq0n2U/91/CD5A3xd7T5nIV0K4W3AqMk3mfhVXEsFIel9JqJA+HftwMVFF+QD+MmL6eNL/j5w0SMfmXIee8ZxV4FqOx8iIiIiKsjnP/95TP7gP2cFOnaAI+tkm2JY5Wn/ipisLqSdb3CmFeveDR/jvtoPUfNnvZh7bxILfzUJPPIMsP1fqQDH1OB8cqsOcPCr/xp/7zcvAPd8QvpYQ13NnMllFSV+gonmX0XALEqh/OseQUj9119Ez0QMF7OinFm89LthPDrqCl588iEiIiIiWi/cgc5yAhxhxyvOWCW97ApySmkhWaumDbhzdwF/9/a/w93JF4BXfxO4NQPsuaQCnIdTAQ7+0Zfw4Zu9qJn/b9hyzy3cU7NgcimCrkWxmoF98aVrJlHYtTfy2oZBTCAcUNu524q1tqvgJYzfXWp7qtmLiE30oL1kAY1HrVPCeY72Cmu7UOiLKt1qOjcWSjeJS5+nc7sv4otfdDWXk6Z6qaZ1Dr7XVXGss/ZtNdXzztd9PpnN+lLvycqTiIiIiKqBM9BZToBTiBULcu4m6/DX8/fjTvITevnvFj+Bxfd/BHzxdKqJmh3g3H4thNq/92l8su4OPlz4pA6Q/JkgJaMQrArQAasWRaK330dMBTNurRhIjqLHbjKW1VZM1ifQGQtkFrpdZl/6FgabO7HHq9mVsybIk9exF0q991vA70t0arWZcwQME/jxr/6+OvcBdRbqTAbsKFad7+C3PLb7AX7wYg8GR9JHMDYyiJ4Xv47M08p1XWVdDJ1287tR4FsvAV8vKF8JcAKIdSbMcdq1X155ZoVdREREREQ5rViQI7Uxm2r+Tk/SBC258Zex0HYJ2NyQFeDc+0+ewC89fgoff/ZfYF4FRxIg+XM+12IV6jF7DT9ujuKgiVt0kzJrtkj1+PoPVL4qiPhxmzPQSQcngfCjGP2Bu9BuTPwECTPrzePYC6be+/tmv/Vfx4s9E/hJamfN6HRGXakOFKTmysmxndRcDY6YQGsMIz9OX7+UXNdV1jmDtrZBdfrqgArK16r1etH9gI5fnkRERERU8ZxN1JxN11bCigU58lzNffd8qCdpgvb3/0//Epj7Oyy89i8w98uPYW7DJ3H7/9eD2o1/Hxs/VY+//cERfHzDKhoX14HcClBBxO9Hmx01EgUEJ/V70Nk8CEclxgqaxbUfm1k3ae6V6kAhAXUaPlpxMPpjXVMitVM/7tzjHbjl1JPuqEEmXR2z3Hy98iQiIiKiSuZ+Bsf9jE6prViQk1JzD+q2/w423v4vWPhfHseH7/wAt/78NG6d/03M/fQi6hL/Dr/4o9/E3/0Xq85B1/5suKPnC1a/DY9OhHHKBBi6SZk1W7ixlzKeF7kYm0Dzr+ZufJap3mqqlVEDpKig46WSBD4TiNm9HeR6/sfZgYLeTqd6qt/TCcRO4VQMmTVBtlzXVdapJa/mZOl8H82urREmIMx6b448iYiIiKgy+XUysJKBzgoGOaY+RsbGuefv457P7MTcP/7nuGfn/4h7H9mLui0PY3PTNzH/q1/Hhs88hk9++SX80j/8VXyy9sP0ez05n2uxH8BvxcCoFWBI2u+i06e5Wivae8z73Q/dtG7DT1L5BhB+dBQ/KLa/49aBVFM3+/hqfhfYkwpGvI69UM149Ce/a71XPyfjU6PUehBRhBHQ+/4JHvWtyVGk2dujgxh89EWfrp1zXVe1Tj8bZD3DpCf7mkoQo4KVwUfbvY9RAsIfjOJRx3utt+bIk4iIiIgq0mOPPZYV4NjsQEe2KaWauY+uS6sgPaBOekpi244vY/rtcSwsLGB+fgFz83O4e3cOd+58jFfOxtD/0oDJwtu/f/6/x//j4TeBz30DybkPkXzkWXz4X34f99b/Jub/+ie497++hvntz+HDPw6j9r4Hcd//+etI/sWr+Ntr/wvO/8Xn8LXv/K8mJ1pJ0hPbSHsB4w0REREREZWByNdDeKajDZs23YuNG+v0VFdXh9raDajdUKtea/1rcq7GXzdzS7O9JYLJd7cg+ZOXcecT9fj49ru4+7M3MP+X/ys+sRH44Nbf6PFzPvG5f6XH1En+t7/C377/F7j87ifR+FTE5EIravYlfMurYwAiIiIiogrmW5Mjr7JiqTU5YuKPv4/p8dOY/+AvdF5COiRYhDWGjpCGafduuIOPk59AzScfxqNP/Ws0f/mf63W0UqwunMMT0qHCD3yaqhERERERlZ9CanJWNMghIiIiIiIqpWU1VyMiIiIiIqpEDHKIiIiIiKiqMMghIiIiIqKqwiCHiIiIiIiqCoMcIiIiIiKqKgxyiIiIiIioqjDIISIiIiKiqrLkcXKOHjtpsiAiIiIiIlodR4/0cpwcIiIiIiJaXxjkEBERERFRVfENcrYHnzRzRERERERElcM3yLkaf93MERERERERVQ42VyMiIiIioqrCIIeIiIiIiKoKgxwiIiIiIqoqDHKIiIiIiKiqMMghIiIiIqKqwiCHiIiIiIiqCoMcIiIiIiKqKjVzH11PJpPA4uKiY0rqV1mxsLCA+fkFzM3P4e7dOdy58zFeORvD0WMnTRa0XCdP8loSERGRpbe318xl2/KdvzJztN7c+uY/MnN09Egvnulow6ZN92Ljxjo91dXVobZ2A2o31KrXWgY55UCCnOPHj5slIiIiWq9eeOEFBjnkiUFOGoOcCsEgh4iIiEShQc7N5/6efqXq9+DLH+lXBjlphQQ5fCaHiIiIiIiqCoMcIiIiIqIKtnv37qKnascgh4iIiIiowr311lsFT+uBb5CzPfikmatwN86gpeUMbpjFrOVqMBtFc3MUs2ZxVa3lvpdrtY+9VPsrNJ+y+WxmEW2uQU1ozCy7jIVQU9OMqN+Bus+jbM6LiIhoHajQsrNvkHM1/rqZKwG5OFu2YIuZWs6oy+RK27IljPGsbU2aGA87tlVTWK3JykOmFkj2WSrhA5LCW40qDDomv3Kh0+yFGPDln6PLXfBbhcLgmuy7RHmnjn0J17wS5Pxs5FxdJzoWUmmpbccQcl6X1LaudDs4yfjuZgYss9EuRIKjSA60mhSh8rH31TqA5GgQka48n+kqfJ+JiGj1vHN2Hx588MHUtO/sO2YNrRmvMnuFWpXmauGd57Fv6hZu3ZLpHHZcu26t2HUCUzpNTeeADglCtu7H+NQJ7NLromhRm90404ItHcA5e1s1ncNFKwBy5qGncezfKitcJN/x/fBaVVaa+pFIJnXPdslEP+Jt+QvdiWmg84lPm6XVtZb7Xq7UsS/hmleCnJ9NUw964n3pYEQFEH3xJjSZRYyNAKPmmiQT6Hduix61yl43gXD9LKJdMXQmTFpGwDKGUxGg/2A6wJmNNqtAqA2DZllrPYh+RHAq13WvD2NiIox6s0hERJVLApzHL+zFmzdv4qaehrD92OMMdNbUuH+ZvQKt0jM5OxBIRRctiEYldHFp2YPuy9eQfSlv4NXzwIkpK+CxtUQzl/PKqMm5htMtrpofs/5MWNKsGiQdXKWiWb/tbuCMyksqlizqC+Lc1q9mqRBSqJNCd58pMOq75e5mPWMYGQyi4UGz6MMqWJo77fbdcK+77+ZueVTu6teEVO4+79WWsO+M/YQQkmZMKj00Zpo06fns9al0tfdoVwSTkxEEVFqzZJZxHtYxW++3z8P5fpvPsXtec++80+tNuhybOuaxvPtWvPLVyR7XylqR3j6gzj+VvNTPphHtnUDsgvWOMRWJBDtVgq11AOmKlwSmJ1VehUYXgcaMYGmwqRN7He+tD0/oYDK1jVaPvZ1NiM+kzyCL87pjGqdS3w33zwQREZW3NzBwDDjS/zU8ZFKAJ/DtN48AFy7hnXfOYt++5/H8vnQtz/NvmM1kXar2Zx90TKS3P4uzz3tsT0XyL7O/qsu+1pQq92bU/DhaZdllbr3ebpklZWZHK60VtipBzp7uIXTIyacjgSw3zpzE0K5teMQsp9x4FecvOy+4y+VD2Jm6uGpKBTI5XL6CbQNWlDp1AjgUMu9ReV3bI+lWALV1/7iJZNV0bgcOnTbHn7HdVuzv7cbQRbNu/CKGunu9a5OWor4BwclpVcz0IYXInnY4GwJlUYXDrkgwdfd9NCj5jSEUmMZh+458ohMx++67CiCm2yV9AK2e7zWc+zZBR6rA7SiI60KtvR+5y2/frp+Mo3FY0now2NYF2PN2gGGv1++TbSQYqEd4WBWQTe3LRDihzkMV0E2tQ6I/jjY7okidhytfkeu6pa65XCOPvB2fiTQJC/YAI3qXKhhQwUNAZnPt2y9fxftaZW6fChAK/Wx8BMKHEYyc0kFZX7wfB/eaFSl24DmCdvkumFRgEG3mc9ZBpnwmE4cxHbA/+xg6h60al9mZOJo69xZU+1LfEMTktO83PZPju6EuR/6mbkREVD7euYGrO/didzrCsTy0FdunZvFTmZ+6ivp+U8sz9Cy+1/28Co3ewPOPz+KAXfvz5l5ciJyFrvuZOobZpxzbnzbpVIQW/zJ7quwrZWJV7j0pZWep+TmEHees9KkTV9Ah79sawA5TcXHj1fPY0Q1YxeTruAaPsv4KWZUgpyVqLsqei1YgYl84R4Cy8/w+TPk1J/MKfmzu5mqFNEnbtQ9Pm422Pr0Pu+waJJXXAWf1kDM67RgCriSsYMi9ndRCDVnN58YvDqF7j1kpTeT8ms8thdQy6OZBZlkZGxlET3vOEMcqlOuCqVVj0DogwcsM4o7Cqg5K7GBKBRCp1kVe77XWZO7b2eRLJuederkDb++nbRCIz1gFUvsOv9z5d87LOuGsAWhtR4864qwb/XIejuOt39uJpsERfawZ5+HMVynouvnm3Yr2HutYEtNBtB9sRFyiHNk+2GAV6HPsO+cxe10r1/YphX42vuQ81PslgDrs1QxMghf5PNsxkqotacVA6nMeVUFSl04fC7WZ5m0J9DdNpgPZYsh1sr8b+Ti+G/r65boRQERElccZBD3xFJ7FVdz4zyo4wvfQbdfkPH4MU3ZQtPMIQk/orYGH67HTzFJxfMvszrLvI9uwS15vJHDFka7L1Lo8LMHSFSRUofn6tR3Yc2AbrkiUI9vvCKzaoyOr1FzNaImqC3cuFRBkBCh+wYmOBs/j1bzVMyUmAY6zXaI8J2RWZbMi34vj47g41A07xikJXcA1tQNZZjETb0Kj90oHu2AqhVUpQJvmUargnBGYZNytt/m8t9B9S6Fd7uzbz2tkNVNaC3mOPec1t6jyOKYTYxiJq+3q96IzroKUxDSCeQOLHIq+Vsv8bJTWg7KPHuQ+bAmGJtX5msWUABrlAG+amiCdhwRG7md4CqSu36QdJBIRUfXSNTYXcMld1aJreOrxsFn0pIKZ9HM8Mn0bdmxDJeQusxdJxUG4dl2Vi69swyNbn8a+Kyqf69ewo6SF5NxWpybHWeWlo75iqqpacECalO3MbMM3Hi5Nmz6pRrvcvUftxYOjxkdvZ816alEHeaWjA1dOHEjnpWuClvFMjiqy6mZK9l12fZff+ZzGBagisXVHWzehisE8YqFJUypdaFTvC+k3SaFY7rTHMQPZPs+D3sLrvbLo3Hc+jrvu+pis2eK4n+2w79zr806fh84/b/O9XMfuuOY58pbaA/T1Ia6bYsnzJMDICAoKLHIes9e1cn22qfRSfDa6djA7uJ2NhhxBijzfY4KmsVD6+SLZjzyrs9v1XbLT1f51E7TYhYJqZ3TTNvsC6u+6HbTlVtBnTkREZeQJhI4Ax+ymZpo0RTsG7N3teE7HeOM1fE9qdn5DgqNjGODzNitDyq3FlNl1RcQh2E9zOMvUUquDkydxZd/T2Kr+yeLFi8C21WqrpqxKkLPvSodV5SWT1I4M5GhSpmtQDuGybspmBTLybIxu52fnoaYOmMDE0eTNmgoIKtzN5Lw6Qti6H7070tuFru3IUZOjSJS6axf22VHRUqnCYvrZlj40JpKOB8AzSeEOqecdVEFXnquxn4tQUyDWiYS8WRWSEQmY9ABincMI18v2Vk9i9vaZD64bnu917zsHVYg+HEyfU9d0sPCaHOe1kNZQds9akqc0s1LpzdFAxnkE5BkVvwtmZB277zXPvEYZect1UZFGp4kkZHEw3lhYYOGXr++1UtvL8znms02lF/rZZJxfYYGDlbX9Hn3xrWaSgcb0d0Y/JyQBkuu7pGujTOAkzQzdwbd0lqCbR1rHZQVNs7gQm0Sw0N4NHOeU+p4TEVHFeOhr5/Hm3gt43G569mA3MHQT579mQhwVzKTWyarz0kmB1TnB1W77PWrax2dvSkbXuBRRZlcl8eiU3OQ3ZepDO3DOLlOrAEhqB+xysSwOXdmWqjxYDTVzH12XljFYXFx0TEn9KisWFhYwP7+Aufk53L07hzt3PsYrZ2M4euykyYI0Gcfn5Db/54pyOKki3ePHj5ulwsm4JiPt/kHQSlrxfcudfOmLYAW6DF7L67Yayu38JKgJTB92jZPjIgOC9jUiwS6iiWide+GFF9Db22uWsm35zl/p15vP/T39WpWktzQZfkAHNvTgyx/p11vf/Ef61cvu3bvx1ltvmaX8HnvsMVy6dMksVZ6jR3rxTEcbNm26Fxs31umprq4OtbUbULuhVr3WrvIzOVVMdzjQW3yAs3TShCjfsxQrZS33vVyVfOyFKL/zqw8Poz/eljX4aIoEOG1x9Jse2YiIiKh4ErgUOq0HrMkpA0utySEiIqLqwpocciukJme9YU0OERERERGtO6zJKQNSk0NEREQkCqnJofWHNTlphdTk+AY523Z8GdNvjzPIISIiIioTDHLWLwY5acsKcuSVNTlERERERFRO+EwOERERERGtOwxyiIiIiIioqjDIISIiIiKiqsIgh4iIiIiIqgqDHCIiIiIiqioMcoiIiIiIqKqwC2laFg5kSkRERLQ6cg0Uu55wnBxacRLkHD9+3CwRERER0Up44YUXGOQYHCeHiIiIiIjWHQY5REREREQVbPfu3UVP1Y5BDhERERFRhXvrrbcKntYDBjlEREREROTtxhm0tJzBDbNYKRjkEBERERGRFdBs2YItZmo5U2mhTZpvkLM9+KSZK5HxcOqC6Sk8blZUmEqKZis08iYiIiKi1TaO8M7z2Dd1C7duyXQOO65dN+sqj2+QczX+uplbvhtnWrClAzinL5g1ncNFdSmJiIiIiKg87EBgq5lFC6LRFjMPvBpOV1ak6ioyan7CVtneeZNdrzfpKuVMiz2/8laludqr54ETU1F1qdJaombZ9+KEEW6xL6RcFHs+e30qXfjmdwZn8n44LdC1cr7bq+MIHcLly4ewU6VlVOHlOCYd5Jk0731Yx+m/XY5rIbzOwetYvbbLdxz2l5SIiIiIqlgL9nQPoUPKf6lCpqHKk9f2mMqKc90YOinlQ6n5OYQd56z0qRNX0CHv2xrAjsvXIHVAN1QQsKMbuKizu45r2IZHZHYVrEqQc/6yMyp08rk44vIVbBswF7IjBNjz+qI61tsXu0MK6Lny8/twrqFX0mSa2ofzITt/r+23Yv/ACezadQJTKn18v+ukPI9Jfdb7x600nb4Dh067j8kK+Py3y3Ut/M7BfazXCzhXdRwq6Akd2pGqdTu3w/qSEhEREVF1a4macuKei9bNbrscrcqTB+zaike2YZe83kjgiiN969P7sGtIWmpJsHQFCVXIvH5tB/Yc2IYrEuXI9jsCqoS6Olan44FdPlGb78VRdu3D03IV5EI652WdsNNEyx50Q13MN3Pl5/PhwESsMqkA6bKJPD23z8frmCSKcNagdAwBVxJWcOHch/DdLse1yHUOToWeq0TfejsrQEvVuBERERHR+tASVcHOOXTb5egiqWIqrl0fx8UrKgbY+jT2XVH5XL+GHXtWr1S5KkHOjsvn8aourZchVcCXmg4dteqpxIX6n6nAxfkQ19QJ74BJApxCtvNS6DkUtF0LonrdHlzUAZEV7BARERFRFZOyqLOZmq6MyNG8TDdLOwS74ZE0TbvcvUeXLaWiASdP4sq+p7FV/ZPFixeBbavVVk1ZlSDnwAng0M7MwvJ4WC3nuDhFGb+IIanheLzI/Fz7L5hXTYmbfUyfVfOOGh59TNZstkK3c8p3DvaxFnqu6gse1g/rSLAzhRO7TG0UEREREVUvXePSYbX40a1+zmPfwP4czctUWXHqBK50WNvvlMcd7I4KVLlTCrL7TMFWFoeubEu3eFoFqxLkyLMm+vkY+6KpqQMSfOS4OPmoArs8UK/zk57bxuVDKDa/zO31lO9B+6370WseysrqO9zrmGT7Hen00LUd3jU0hW6XJcc5ZBzrI4Wdq3wLD+002+zE+X0DcD96RERERETVZiv2jztb/IxbZUBVnhzX5WzDuSzzni2EVPnUfr9ejOKWM49VUDP30fVkMgksLi46pqR+lRULCwuYn1/A3Pwc7t6dw507H+OVszEcPXbSZLEGpDpNnr9f5YuVUzke0yo4efIkjh8/bpaIiIiIaCW88MIL6O3tNUuZdu/ebeYKd+nSJTNXeY4e6cUzHW3YtOlebNxYp6e6ujrU1m5A7YZa9Vq7Sh0PEBERERHRipCApdip2lVmkOOuNisH5XhMRERERETrEGtyiIiIiIioqlTmMzlUNuSZHCIiIiJaeX7P5Kw3hTyTwyCHiIiIiIgqxrI6HtgefNLMERERERERVQ7fIOdq/HUzR0REREREVDnY8QAREREREVUVBjlERERERFRVGOQQEREREVFVYe9qREREVBZOvzxk5ohovTnwXLeZy49dSBMREVHFkCCnmIIOEVWHYn/2GeQQERFRxbALOps3bzYpRFTubt++beaWbiWCHD6TQ0REREREVYVBDhER0QrYvGVL1kRERKuDQQ4REVGJSUBz+9atrImBDhHR6mCQQ0REVEJ2gEOVaSxUg5rmKGbNMhFVJgY5RERU9bZsieppta3VfmlpJMDpQw+azDIRVS4GOUREtG6sddDBJmtFmo2iuTmKqNSu1FhTaMxODyHUbKfNIpqat96qtzHvqakJIZ3cbNLU5KixkfS+xgQmDjaaFCJarnA4bOZWn2+Qsz34pJkjIiKqLmsV6LAp2xJMRjDdntTDWiRHezDYZwKTyTgah01aWxdgz+v1YwgFIgiOWu9L9MfRJtGPCny6IkGMSl5qGg1OI6GykgCnC8OYCNdLzkRUAnaAs1aBjm+QczX+upkjIiKqDrdupf/YsilZhWjqx8FWMx9oTDcla+rEXolJJM05L+tmZxB3vK9+byeaBkcwVt+AIAbRZmp2WgcG0KpCoguxSRVLBazaHRUcTarAKsDncoiWzB3YrEWgw+ZqRES0rjgDHVHqQMdukiZTEkd1mr3MWpy11ooBXYvTjpFUM7Z6hCesmh09JfpV0NSPxERYrSGiYjkDmmg0/ft1tQMdBjlERLTuSKCzkrU6EszIVKOCHAl0rOUpnGnZovZjTy04c8O8gUpLamwmIzhlHsSZvRDDZE87WmejCEWlfkaCnQT6m+KYYXUN0YqwAxxnoLOaGOQQEdG6tdK1OkICHe3Gqzi/45za5y09TZ0ADoXOgHHOSlBBTKIf8Targ4GAPIcz0KqDH9jN0moCiHUOg4/hEJWeO7BZi0CnZu6j61I7i8XFRceU1K+yYmFhAfPzC5ibn8Pdu3O4c+djvHI2hqPHTposivPjH/8YIyMjiMfjuH37NjZv3oxgMIj29nY8+uijZisiIqLSsYMXd1Dj5A5wcm1bqJz7vXEGLTuvofdWFC0mab07/fIQDjzXrcsGRFQZpDy/XPbPfqGOHunFMx1t2LTpXmzcWKenuro61NZuQO2GWvVau3o1ORIsnT59Gt/97nexe/duDA8P40/+5E/0qyxLuqyfn5837yAiIlo9q1Gr4zR++hBw4gADHCKiFbBqQY5UU23atAmvvPIKnn76aXzmM5/REZe8yrKkf+ITn8BLL71k3kEFk7uBLUU0eSh2eyKidUICHWewI4FOqYOdG2daVJ5b0DG0C/ue3mpSiYiolFYlyJEmau+++y4OHjyo28F6kfRvfOMbejvZPrcb1sObhRbUV7pQ78yfAQQRUcVbyVqdrfvHVf63cOvcDhzaGca4SSciotJZlSDn+9//Pr7yla+YpdxkO3lmJyd5eBPd6t95vFpu0cTW/Rgf3w/emyMiqmwrXqvzyDbswhUkeFeMiKjkViXI+dGPfoQvfOELZim3xx57DG+//bZZ8nbj1fPAvgPYs+MyzttRjrsGJbV8A2dCh3D58iHs3LIFLdJfp6xLdeFp7qLp7cMIm+49w+OmtkjP6xzVJlYTA2uyu/505d/X5ziOcYRT26fzsWXkZx+r2md6O3m/2s+b+Y8NuIbTJi2jW1KvcyUiooKVrFZnXP0ed/wSlr9ll3ftA1usERGV3qoEOb/4xS/wqU99yizlJoXxDz74wCx5uQEd46i/Ci17unH5/KsmoPCzFfsHTmDXrhOYunUL4/uvI7zzEHacs7vwvIIO+6/O5SvYNiBNCLox1BEC7PmTVtCSamJgNzM4Le9z5f9b/0BnpYOflg7A7EemqPPpUhV8hA7tUKutded2XMN1yatX7e+iOZ7xixjq7sX+z6r5PMeWWq/ySndLqoIkv3MlIqKClaRW55FtuNJh33Tagp3yN4A1/0REK2JVgpxf/uVfxt/8zd+YpdykMH7fffeZJQ+6qZq589WyB92Xi2yydiOBKyogOWACjq1P78OuoYtWDYd9R02aEDjnZZ1w1op0DAFXEv4Blj7O9H6ybA1gB4bQYWpXWqKmC1E5J3M84xeH0L3HZJDv2Bx3A/U5XVZBU65zJSKioi2rVkeaM5sbW9bErqNXxWwUzXpcHGtq1oOBElG1W5Ug59d+7dfw53/+52Yptx/+8If43Oc+Z5ay6ep90zRsy5YOFSY4mqytJAlwdqrwasr8cZo6kQ4wlqQFUf1Hbg8u6nOxm5K1YE/3EC6Oj+PiUDfsGIeIiMpDSWp1aPUkphEcTeqx/5LJUQQjXWCcQ1T9ViXIkYE+//AP/1APMJqLrJftZHtv0lTtMrodTcCkyVaqyZrUXujtTDBk5jV7ndSgqCBJtzRT9Hbdewq7m+aoLfHN37b1aexDej9ZVNAU1g/OSLAzhRO70g+fthw4gSsdHbiyxPETUue0nHMlIlqnNm/ZYuZyW1atDhVGamGao4iG0jUxoTHHulQNTQg6OWN7k9Y6gIFWmREBNDaZWSKqar5Bzvbgk2Zu+R599FE89NBD+L3f+z19J8WLpMt62U629+TVBMxusob9GJBnTkxzstC1Hemalq370dstTcOk44FHEJ2SIMLaTreJznhYxofkscOuQcqR/3/4aztRP6vjbH+d8TiMCkBwaKdZtxPn9w1gvwmgdIC0q8jxE1K1W+qczu/DlD4nFUAt5VyJiNaQBBnuqVyxVmcVTEYw3W5qYkZ7MNgXxawKX0KBSKqGJtEfR5sd/aS2H0AqtrHNXkAMndhbb5aJqGrVzH10XccdUouSnpL6VVYsLCxgfn4Bc/NzuHt3DnfufIxXzsZw9NhJk0Vh5ufncebMGdy8eVN3E/35z39eF7ylNkaaqEkNzoMPPoj9+/fjnnvuMe9ap8bD2HJyG6b4QCoRrTMS0NxWfxfc/NILZQce7toXL0vdlzu4kX0Vs18CTr88hAPPdWPz5s1WgtTMdAHDE2HouMReHga63OmBaRxONKLPmZ5BBUY1fWhMTCDMIIeoZG7fvm3mls7+2S/U0SO9eKajDZs23YuNG+v0VFdXh9raDajdUKtea1enuZqQwOXAgQP46le/ikuXLuG3f/u38aUvfUm/yrKky/p1H+AousOBXgY4RLS+LDeQWWtetTpULhjgEK03qxbk2KQp2osvvohYLIZXX31Vv8qybxO1dagl6upumohonZEAwTl5pRUzrSbW2qyC+gYEJyM4ZVqozV6IYbKnPbt5mpBaHgY4ROvOqgc5RERExarBUSTVVGpSe+SecqUXyqtWZ7WDrerWioFEP+JtVscDgUgQo+neBTLoAEj9iwTsTgrYjTTRerBqz+QQERHlIoGEX3O1XOsKYQcYhdSyLHdfbu7ghjU9/rKeySGisrfun8khIiJaj1irQ0S0+hjkEBFRWZDaE7tpmEzCnq/kDgls7hocBjpERCuHQQ4REZUNCWbsyQ5u0gHOOMJbWqDHUa5QrNUhIlodDHKIiKgspYMbGT5MBjXuwJBZrnSs1SEiWlkMcoiIqOxJ1/q3bp1D4Y+lLp0zuFpJrNUhIlo5DHKIiIjWEGt1iIhKj0EOERHRGmOtTjkbQ8iMr6OnkD0CaRTNzVFwxB2i8sQgh4iIqEywVqcMjY0Ao0k9dmAymUB/vA8cS5So/PkGOduDT5o5IiIiWi2s1XGRGpNUTUoIuh5F16KEEGpO17CkK1iaU2k1Nc1WQOLaPjQ2i2hqPnt9Kl20DmCg1cwjgenJIBrq1fu7IpicjCCgtm1m1ENUdnyDnKvx180cERERrTbW6ogxhAIRBE1NSqI/jjY7+piMo3HY1LCM9mCwzQqA6sMTptZF0oOInHJtr7ftAuz5PtPkzCc/ix0UjaA9OYBW1CM83I+mpn4k1PYT4XqzHRGVCzZXIyKispfuQvoyDu1U8y1nUMHD5RRs3dfqzM4grgKJg6YmpX5vJ5oGR6zgo6kTe+3YorUdPYhjxq61MbUxNW2DQHzGCmLs7QONKjhxzMs64ZefpoKaCQmA2jFi1w4R0Zr5W/OaC4McIiIqe1YX0o5pfD+2mnXrAWt1CnRTBTiBGDoTpkYm0Z8OYkqiFe09k5hOmEUiWhMXz72NSTPvh0EOERFRBViXtTr1DQhORmC3OJu9EMNkT7sKNVzGRjAoNTEPqnlHjYze3potjp2fymc2GnLU3IxhZLAJjQGzODkNxjtEa+Em/n3sr8y8NwY5REREFWR91eq0YiDRj3ib1fwsEAli1O4FwDz0bzVLA0YnwqivD+NwMJ3eNR0svCbHKz+VrOIsRAIm3VoB/QiO7KtnEG0qnR0PEK2+H//b8/iBmfdSM/fRdanRxeLiomNK6ldZsbCwgPn5BczNz+Hu3TncufMxXjkbw9FjJ00WRERE5c0OBNwBQqVzBzgrcX6bt2wxc2m3b90yc6V1+uUhHHiuG5s3bzYpPuS5G+k7wAQiy1bq/IjWkdu3b5u5pbN/9gu1t7ER//mv7sM3/iiKrz5Sh40b61BXV4fa2g2o3VCrXmtZk0NERFSpVrpWRwIcCWjck1fgQ0Tr0/Xr15c8LdV9/0D+P4Of/oVe9MQgh4iIqIJJoOMMdiTQKUWwYwc4Zak+jIlS1rqUOj8iWnNsrkZERFWvWpuruZWyJieJo6hRk5N9/VYqALKbrFy/k6e5GhGVhZ3/HTA1NWWWivfII4/o12Kbqz37G40Y/fFf4V9Ex3DsCTZXIyIiohJgkzUiWkt/8dfy/wY8/E/0oicGOURERFXAXYtjN2Nb6uSVh62sm7IRUdXTMc6jX8SXPqsXPTHIISIiqmDuZ3DcAQkRUTVq/93fRI4Yh0EOERFRpfKqvSkVu0maPQl7fn3V4ozh+D+swedTUzO+91OV/NMovro3ip9ZGxHRKvoHv/Zl/I//1Cz4YJBDRERUYVar9kaCGXuyg5vbt6ZwpmWL2n/mFB43b6pKPTj9X5P4oZ4m8OzDJpmI1sSTgb9v5vz5Bjnbg0+aOSIiIioXK1l7k4u79qb73C217/QUbTErSk1qTFK1KCFrhHNdixLC8b3pGpbjl/TW+Nlgcyots9Ylvf3xS7P4Xmo+e30q3Zd6//8QwdtvRdCutv3q4KxJJ6Jy4RvkXI2/buaIiIhora1W7U15GcPxpgjq/4NVizJyLI4DB8esVW/F8fC/NbUr/6EHf/RbVgD02Z4JU+Mi6UH8T2dc2+ttuwB7vt80OfPJzzKIAyb4sQKaejz7b/vxucf6MaK2/24PR9ghKjer3lztxz/+Mb71rW/hmWeewdNPP61fZVnSiYiIKNta1d7kMtSxCk3VfjqDWRVIdO22Fj/b0onP/cGIFXw81ol/Zjcb292O/xviuGnX2piA5PO/NQhMz1hBjL391kYVnDjmZZ3wyw+teMEOmv7rKOqPdFm1Q0RU1lYtyJFBRU+fPo3vfve72L17N4aHh/Enf/In+lWWJV3Wz8/Pm3cQERGtb+VZe7MV+8fTzdSmTuxSAU8Lztwwq9fSX6oApymGlkkTlEz2p4OYkgjg4cfMLBGVtVULcqLRKDZt2oRXXnlF1+B85jOf0SOTyqssS/onPvEJvPTSS+Ydq+DGGbS0nEHBv5dzbT8eXvk7Wiul2OtAREQrrhxrb7xs3d+LblzGtesmoZQebkD9WxEM28/bjMfw9u+044vWYtqlEfyR1MT8YzXvqJHR21uzxbHzk3wuhdLP5/z0AsbfCuJBu8bnrWn8hZklovKyKkGONEV79913cfDgQdTU1GB8fBydnZ1oamrSr7Is6d/4xjf0djmbrkmB3AQTMrWUxa2jcYQ7ruDE1Ao+fLnWgQgDISKiVVGetTdrpRUvTPZj9res5mftR4I4farVWmUe+reapQGnL4Tx2YfD+JeN6fQjiWDhNTle+Un61sbU/j+vnw8asIIs2dfvWM/qsOMBovKzKkHO97//fXzlK1/R85cuXcLzzz+PGzduYG5uTr/KsgQ6QrYbGRnR89lUMLHzPPaZYOLWrXPYsSK3jop0I4Er2IHAVrNMRES0BBVReyM3vRxNFm6cOYkhdGPPSvWupoKJ76aeiTEBhjAP/bvTv3jKTkviu6cG8F0T/OhX2cBv3ie/zP0n8YJ5PkjY+2LHA0TlZ1WCnB/96Ef4whe+oOcHBgb0q5s0VxOPPfYY3n47V+WyM5hoQVRXm9zQffanf+eqYGhLC868KbUPYYRNf/7hcWu7zCZl13A61d+/o01xRo1RWOXoRwKvQ7isfsV3yLb/7LfwpZYzOBN2vM8rL10zku/YbGpdSO3j8iHsVOt17VVGnua48+XpWu+1rxtnWlLr0tejwP0TEdGSVFTtzdYAdgx1mN//W7Dz0A6cuxVVf5GJiMrHqgQ5v/jFL/CpT31Kz//sZ95jA9vp8gvzgw8+0PPZWrCn2wQTGaXzrdjf242hiyZt/CKGunuxX27NXL6CbQO3cOucWt8RUlGWmT9pml7Z6/XDk8ChkKRbgcsOMwbA1Ikr6MiOPAwVaKk37tp1AlNSu/T7X8S9Khi4tkfeK7/0c+SV79hS1PkNpPcxvv+6yvMaemV/Mk3tw3l93EoR52ttkxnAbd0/bq3T63fg0GlZW8T+iYioKBVRe5NB/d2zf//raQ0CHGcNTCmUOj8iWnM1cx9dTyaTwOLiomNK6ldZIb2izc8vYG5+DnfvzuHOnY/xytkYjh47abLIT5qg/cf/+B91oCPP4EgTNbetW7ciFovh5z//OX77t39bz+ckD/p3DMloZLila3Ok9uYi9qhftmoGF1WQEX3kDFqknD++H1ul5sE9PwCE7DTJU9Kl8D61DScLSbd55e18b768cr3f5t5G1x45deNcvjzd56uv2Uls+74KUr7lk7cENl75ee2fd/KIqEzZgUQ5BRCVF9ysvNMvD+HAc93YvHmzSSGicjc1NWXmivfII4/oV/tnv1BHj/TimY42bNp0LzZurNOTdGhWW7sBtRtq1Wvt6tTk/Nqv/Rr+/M//XM/39PToV7d/+S//pX794Q9/iM99roDHBFui6g/COXQPXTQ1EVYtz8XxcVwcWsG2weXCrjkq5Z00Hbw4nnmSGiqzKstK7J+IaJ1ggENEtLJWJchpb2/HH/7hH+raoSeffBInTpzAww8/jHvuuUe/yvJTTz2l18t2sr0nKYQ7m43JA/+7tsGKAVWYc+AErnR04MqJA0sqcN949Twud+9Bi7Q3vnwIuqWWM91aLE4p87p8DbqbBVeeSybN+nbtw9PO+nlZNlVI+litWUup909E5GHzli1ZU7WQ4MYZ4EhwwwCHiKj0ViXIefTRR/HQQw/h937v93QTOAlozp07hz/90z/Vr7Is6bJetpPtPW19GvuupB923CK1DgN20ytF1u/ahX12Kb0QqrAuD9PrhyfP78OUbvpmPWdzxYzmrB+qXHK/0CXKa+t+9JrnkVrOPJKRp54K7d7Zcb5bOoBzqaZriuxjR3p96NqOdE1OqfZPRJSDBDS3b93Kmqoh0GHtDRFVI2lyttRpJa3KMzlifn4eZ86cwc2bN/UzOp///Od14ViaOkkTNanBefDBB7F//35dw7Mk8pzOyW3WMyQmiRycz9WYJCKicmEHOF5yrSuEHWCsRWDB4KZwZftMzlgINW2DerapP4GJcD0wG0VzFzA8EQY7kKb17Pbt22Zu6Vb1mZztwSfNXGlI4HLgwAF89atf1WPlSOcCX/rSl/SrLEu6rF9ygKOMXxxCdy8L8ERElc5u1mVPXmnFTF5SNdEFTkvh3jcDnAqkAxxgNJnUN391gENEZc83yLkaf93MlZY0RXvxxRd172mvvvqqfpVl3yZqRWiJ3sKSW5WtB1v3Y5y1OERUgWpwFEk1VQp3cCXBDQOcJZIak5oa1OgphDE7rTmEULOdXoOQXiGrmlNpNTXNiM5mbx8am0U0NZ+9PpWujI3E0Z8YQKu1aKj3d0UwORlBQG3brHdCROVkVZ7JISIiKoYdFNiTBDjSXM2dXujkJd07ZGFTofxqjmgpxhAKRBActWpREv1xtNnRx2QcjcNWenK0B4NtVgBUH56w0nR6EJFTru31ttLOzMz3RVXI4lifkd8YRgYnEQm4g596hIf70dTUj4TanrU7ROWHQQ4REVEJeNXe0DLNziCuAomDphqlfm8nmgZHrNqcpk7stWOL1nb0II4Zu9bGBCT6OZr4jBXE2NsHGlVw4piXdcIvPzVnN1VLJvoRN8EUEZU3BjlERFQW7F7U7EnY88vpdGA1uGtvGOCskZsqwAnE0JlIByWpIKYU6veis8kOfoionDHIISKisiHBjD3Zwc3tW+cQVvPpTgBacKZM+qz3qr1hgFNC9Q0ITkZgtzibvRDDZE+76/kYZWwEg1IT86Cad9TI6O2t2eLY+dW3or1nEH32MzezFxCbDKLBrvGZnEbCzBJReWGQQ0REZSlVeyMDP3ef08/FyDR1AjgUWvuxuVh7sxpaMaCbiFnNzwKRIEYHTIhjHvq3mqUBo9KVc30Yh4Pp9K7pYOE1OV75qeTWgQQ6YwErXdcSmU4IZF8qAGpT6ex4gKj8MMghIqLyJj1DOrrO3BrYAVy+hutmebWx9maVqWBiwn4mJuno5cw89O9Obx2w05KYGBjAhAl+9Kts4Dfvk5/aCOEJO30Czj4G7H2x4wGi8sMgh4iIKsqNxBVg1zas7FjZ3lh7Q0RUGRjkEBFR5bhxBqFDl7HaAz+z9qbMOGtgSqHU+RHRmmOQQ0REFWIc4Z2HgBNTqzrwM2tviIgqD4McIiKqACrA2dKBKyrAGd+/OnU4rL0hIqpcDHKIiKjMrU2A48TghoiosjDIISKi8jZ+EUPq5fKhnSr4SI+X07ICg+Ww9oaIqDowyCEiovLWElWBhjVGjnMqda0Oa2/Iy2y02RojxzmFxmQFmpuj4Ag5ROXJN8jZHnzSzBEREVUv1t5QLvXhCTNGjjWN9gBNjQGzlojKlW+QczX+upkjIiKqTqy9qQBSY5KqRQlhzE5rDiHUnK5dkcoVa5Wz5qUZUalqcW0fGptFNDWfvT6V7qa26xvswWH1NYl2RTA5GUFAbdusd0JE5YTN1YiIaN1ZjdqbzVu2IImjepJ5mahYYwgFIgiOWrUoif442uzoYzKOxmFTwzLag8E2KwDKqHkZDSJyyrW93rYLsOf7TJMzn/ycxk5FgP6DaEU9wsP9aGrqR0JtPxHmCDtE5YZBDhERrSurUXsjAc3tW7dQowIcmWReJgY6RZqdQVwFEgdbrcX6vZ1oGhyxgo+mTuy1Y4vWdvQgjhm71sbUxtS0DQLxGSuIsbcPNKrgxDEv64RffrZULQ4DGqJKwCCHiIjWjdV49sYOcGgN3FQBTiCGzoSpkUn0p4OYZUrX4hBRJWCQQ0RE685KBDe0AuobEJyMwG5xNnshhsme9uxAY2wEg1IT86Cad9TI6O2t2eLY+dmVNn61OJPTSJhZIiovDHKIiGjdWKnam0KxyVqxWjGQ6Ee8zWp+FogEMTpgQhzz0L/VLA0YnQijvj6Mw8F0etd0sPCaHK/89IpZ3clAVi2O7KtnEG1qe3Y8QFR+auY+ui41ulhcXHRMSf0qKxYWFjA/v4C5+TncvTuHO3c+xitnYzh67KTJgoiIiGy5mquxKVtup18ewoHnurF582aT4kOeu5G+A1KByDKVOj+ideT27dtmbunsn/1CHT3Si2c62rBp073YuLFOT3V1dait3YDaDbXqtZZBDq2N2Vne9aLyVF/vX8T50Y9+ZObIz6//+q+bufWLQc7SMcghqjwMcogcJMj5/Oc/b5aIysMPf/jDvEHOJz/5SbNEbh9++CGDHMPZJM3ZRI0BTm4FBzlEVDYY5BA52EFOKX4wiEpBClUMcpaHQY43z9qb8TC2dFzBialx7N9q0ohBDlEFKtcghx0PEBERraCsAOfGGbR0DJkFIiJaCase5Pz4xz/Gt771LTzzzDN4+umn9assSzoREVF1G0d453nsmzqHwu9ZEhFRsVYtyJFmb6dPn8Z3v/td7N69G8PDw/iTP/kT/SrLki7r5+fnzTuIiIiqyQ2caekAzrGJWtmSDgiao2DXOESVzzfI2R580syVRjQaxaZNm/DKK6/oGpzPfOYzuu2cvMqypH/iE5/ASy+9ZN6xCqTJQMsZ9WenQLm2l/bVW7boKTxu0krNvY9ij5+IiNbMeHgnDu04h2iLSaCVsVKBijPfHPsYC9WghoES0ZrzDXKuxl83c8snTdHeffddHDx4UA+y5UXSv/GNb+jtcjZdk4K9KejL1HKmHIr44wjrB0hv4datWyv0B8yxj6kTuHKSwQ1Rtflg+jX84R/+YWp6bfoDs4Yq3w0krqiXoQ7z96sDQ7iMQztX8MYYlVZ9GBN5upiWAKcPPYUPQEpEK2ZVmqt9//vfx1e+8hWzlJtsNzIyYpbc7LbMVjBx69Y57Lh23axbQzcSuIIdCKxk8wPnPrbux/j4frC1A1H1kADntZ99Fk+p34Hye/ArX2nC5isqjYFOldiK/eP23y7r71c3dukbV6zZyUNqTWpq9M3QmpoQxuy05hBCzXZ6DULWCkS7IpicjCCg0pqjs97vz2kap1L5NkOyUNGLtaxraDz2ocxGm9HXmMDEwUa9TERra1WCHOl29Qtf+IJZyu2xxx7D22+/bZa8OIOJFkT1Xwdp5+y8G6aCoS0tOPOmNOcKI6zWWU28rO1Szb20azht0rbIe+zqkYwao7DK0Y8EXodwGUPokG3/2W/hSy1ncCbseJ9XXrqpWb5js3nvI6MmJ2MfjvMgogrwLqavqN9u/7QR95kU4Ffwhad2AD97Fx98MI3XXvsz/Nlr6VqeP3vXbCbrUrU/r0HHRHr7aUz/mcf2RBVlDKFABMHRpB7WItEfR5sVzQCTcTQOW+nJ0R4MtkkAU4/wcD+amvqRUOkT4YT/+/048k30A5EuFdi0DiCpFqwaGvc+6nWA04VhPU9E5WFVgpxf/OIX+NSnPmWWcpNC+gcf+N25bMGeblPQz4gEtmJ/bzeGLpq08YsY6u7F/s+q+ctXsG3gFm6dU+s7QoA9bzf3stffuoWpE8ChkKRbQcWOc3b6FXT4tidQgZZ6465dJzAld+d+/4u49/IhXNsj742qtTnyyndsKR77MGssso9r6JV1Mk3tw3l9HkRUEdTvvNv3fRa/ko5wLPfdh81q3Ycy/8Ft3PdPTS1P02fxs8k/U6HRuyrw+QA77Nqfp1T6n05D/wb94Ao++MeO7a+YdKJKMjuDuAomDrZai/V7O9E0OGLVxjR1Yq8dU7S2owdxzLgfhMn1fj+OfPX2k9NIWIs+ZnEhNonJSMCq7VFBla7l4XM5RGtqVYKcX/7lX8bf/M3fmKXcpJB+n/rD7qclagryey5atRZ2wNCyB91DF3UtyfjFIXTvMfX/u/bhaan5eWSbChIc83qlYqcpW5/eh12Xr+G6NA1TAcUBk4VON3kXxPFe3czML698x1Yo3ZTNBH8ySa2PnIdZTURVwBkE/co/xmdxGx/8lQqO8DNM2jU5r6nAxg6K7tuBxl/RWwOfvM9RQ0TloQXRW+xlrTrUIzxhapRkkhofqeXJ8/wOEa2sVQlyfu3Xfg1//ud/bpZykxHHP/e5z5mlHFqiKtg5lwps5A+G1PJcHB/HxaFu2DHOumHX8qQmqUUiooqga2x+hnfdVS26huc+fNIselLBTPo5Hpm+ADu2Iap49Q0ITkZwylS9zF6IYbKnHaZiJm1sBIPOmh279qXQ9/vIuX3eGh4iWkurEuS0t7fru4yLi4smxZusl+1ke0/y3Imz2ZiuJdmGR8xiy4ETuNLRgSsnDiypgH/j1fO43L0HLVsD2HH5EE6bXaXSrcXilDIvP659EFGl+RU07gCu2E3NNGmKdgX47K9k18K8+5f4mdTs/CMJjq5gms/bUNVqxUCiH/E2qyOAQCSI0QETcpgH/3UTsTZg1K45qQ/jcM8g2nSnAAH/9/tx5BuIdSLhtX3GPtgojagcrUqQ8+ijj+Khhx7C7/3e7+mqXC+SLutlO9ne09anse+K3f2mNMs6j30Djl7GZP2uXdhntz8rhAoOdpr8dp7fhyndkYH1DMyVDpN+aAfOLbn7m1Lm5SdzH3ri+DlEFeW+xqfw1Gd/5uhEYBJo+gqeajQhjgpmUutk1VPSSYHVOcHtSfs9anqNz95QlZGum+2mYMmBdK2KefA/K11pHbDSdUcAfu/3krGtmpxNzhLTUD96KRn7cJI82FSNaM3VzH10XX5GdS1KekrqV1mxsLCA+fkFzM3P4e7dOdy58zFeORvD0WMnTRaFmZ+fx5kzZ3Dz5k3dpOLzn/+8LoxL0yppoiZ/nB988EHs378f99xzj3lXkWSwzJPbMMXulcve7Oys/g7cvn3bpBCtrc2bN+vfRfX1/kUT6Snyk5/M2XhsZUhvaX8K/FMd2JSvDz/8EL/+679uloiKd/rlIRx4rlv/POYk3UJ3AcNLDibGEKppw6BZSmtCf2ICmXGLva3XOiIqRVnO/tkv1NEjvXimow2bNt2LjRvr9FRXV4fa2g2o3VCrXmtXpyZHSOBy4MABfPWrX8WlS5fw27/92/jSl76kX2VZ0mX9kgMcRXc40MsAh4iIqKotu7akFQN2bU3G5BXE2NsywCEqRDgcNnOZ/NJXyqoFOTZpivbiiy8iFovh1Vdf1a+y7NtErQjS8xoHVSOiqnNfI54q81ocIiIimzugWe0AR6xaczUiJ7u5GlE5KdvmahWCzdVouQpurkZEZcPdXM0Z0ESj0axlLyvRXI1BDq0JCXKIyhGDnKVjkEPLxSCHqPJ4PZPjVXPjF+AIBjlERGtIghzKjUEOLceaBznL7tCAaP3x63igkBoc26oGOdt2fBnTb48zyCEiIqJVUZIgZzmBSq73OtdlbefurY09sdH6kat3NQl08gU4YiWCHN+OB67GXzdzREREROtc3h7dejCazNVLG9H6U0iAs1JWvXc1IiIiooJJrUlNDWr0FMKYndYcQqjZTq9ByFqBaFcEk5MRBFRac3TW+/05TeNUKt9mSBYYC1nLzVG1B499EFHZYZBDREREZWoMoUAEwVGrhiTRH0ebFc0Ak3E0Dpuak9EeDLZJAFOP8HA/mpr6kVDpE+GE//v9OPJN9AORLhXYtA4gqRaa9AbufdhVNoNoM8EUAx+itccgh4iIiMrT7AziKpg42Got1u/tRNPgiFUb09SJvXZ80dqOHsQx444tcr3fjyNfvf3kNBLWYg7OwUVHEYx0WTVARLRmGOQQERERlUwAjVaVDxGtIXYhTURERGWh2B6WiKg6rGoX0gxyiIiIaDVJQYeI1icGOUREREREtG4ta5wcIiIiIiKiSsQgh4iIiIiIqgqDHCIiIiIiqioMcoiIiIiIqKowyCEiIiIioqri27vath1fxvTb4yXpXY1dQhIREcc/ISKiUiibLqQlyDn8za+bpeK89957eOCBB8wSrTV+HuWFnwdVir7vvMQgh4iISoJdSBMREZWLG2fQ0nIGN8xilnzriYioYAxyiIio/EkAsGULtpip5YwKBVxpW7aEMZ61rUkT42HHtmoKqzVZecjUAsmeiIgqF4McIiIqc+MI7zyPfVO3cOuWTOew49p1a9WuE5jSaWo6B3RITcjW/RifOoFdel0ULWqzG2dasKUDOGdvq6ZzuGgFQM489DSO/VtlBRERVSoGOUREVAF2IJAKPFoQjUro4tKyB92Xr8GEPw438Op54MSUFfDYWqKZy750M7Iwwi1WTU94/AbOpOYd26Rqghy1R870nYdw2SRnbs+aIyKiUmPHA1QUfh7lhZ8HVYpcHQ+8//77Zs7b/fffj/HwFnRIR53d53DLDnAkUAgBA+P7IfGP1NbsPL8PU7LsXCfzO6+h19TqZNDrHMGHkJodk6emt5GapHHsvx7Glo4rKmAy8ye3qW0DOG1VE0EOTR/HtV51nEDYkZ4+Xtn+IvbYx2OnDwAhx/mIfNeGiKhayO/6QrF3teWYjaK5CxieCKPeJFEFFqqL/Rwr7HNnkEOVIl+QU/AfN3muRqIdCXYOJDIDFGdwkgooXAGP3tAh1zqbX172vDs4kXQJqqa24aQ73d7eHVihG+fc2xMRrRNF/R1Q2LuamxRga2pQY6bm6KxZsUySb3MUy8rNmUex+ZVi/+VkpT6nUqu2605UCVqikGdyuoc8nqfxCw62BrDj8nm8Wk5NwrKeAyqw6RwRERVkHQU5YwgFYuhMJHUNVTI5iuB0wqxbpvowJpZ75385eZRi/2VjBT+nUquq605UxqQGJPXwi3IjgSu7tuERs5hfCw6cAA7tdDwro4yHM5eXTAdRh3DaZHbj1fO43L0HLa7gSqfLjGt7IiIqvXXW8UAQDakSaSsGBlqz78ZnLE/jVLNdo9CMdIWCKog7ahpCZ817zHujIUkPqa1ybKvXKfb+UvudRbQrgsnJCAJq+4xaDL1NCKHUMan8ZCeuPKz9O9ZXHI/PSa6LOu/0+ch1VZ/JpcxrEhqztss8d5/PUa6XuU7pz8vDurnuRGVq69PYd6XDPKQvD/Cfx76BHE26dHOxQ7isAomdphOArfvHMXXiCjpSD/tvQQdUICLb6+3S6cV3BNCC6NQJXOmw3r/z0A6c0w/hqPRzO1RwZaWHru3ALo/t9cTxcYiISmodBTmtaO8ZRJsUQgstgU7G0Ths1Sgk+oFIlwlCmtuAUbumIYmBx832QgUn0+2SPqD2mGdbT/UID/ejqakfCbX9RNhVT+A4puRoDwbbXIXz1P7N+j455kri9zmp63JYnc+ISRsbwWDPYYQfVPP2NdHXQx6ocZ275+coNUYRBM1nk+iPoy3X96LqrztROduK/ePOpl2mi2fpKtqriZqkezQDk0AnnYeaJBDJ2NaeXF1IO/eTaz71fkfTM928zkofj0Z9tleTpDvzIyKiZVlXNTmtA6YQ2j5i3XHPF+w0dWKviTHq93aiaXIaidkLiKEfB6VywYsKTlLr8m27FI5jQms7ehDHzE2zLJz7DzSiycxWEt/PSc53cEQHF2Mjg+hpNydqXxM5X+e8Xql4fo4ziDuulU43eXtaB9ediIiIqFqss+ZqRuuAKkSPpgrMVKayPierlmdkbAwjgz2wYxwiIiIiIiffIGd78EkzVyXkuQlnzY2+k9+IgMzLnX2dKJUvMUyaeSed3tOO1vq96EQEpwqJjvy2LWB/zm18SZMtqWGQJlvVItfnpLQe7Ee8rQ3x/oMq5Cle+nNsQHAy/dmk0q3F3KrxuhMRERFVEd8g52r8dTNXJSTgiLelHgyvkR68hsOorw9jWJ7HMOld08F0UyPz8L+kB2KdSOgH4K1nZuJtJh81hd60Ns/msW0ix/5s6pgOm+dSsrpPdhxTjTzuU229e/l9Tma1Xt/UhM5U27ECeH6OrRhIpD+bQCSIUZ3uo9qvOxEREVEV4WCglURqOdZ4oMo1/zzGQqjpa0RiNa9BGVx3P/z5oEpRssFAiYio6nAwUFr3dIcDh1mLQkRERET+GORUEg4+qXtey9WqbEXwuhMRERFVFAY5RERERERUVRjkEBERERFRVWGQQ0REREREVYVBDhXlww8/NHNUDvh5EBEREWVjF9JUlJmZGTQ0NJglWmv8PKhSsAtpKtalS5fMHFWb3bt3mzkiy0p0Ic0gh4rCQnV54edBlYJBDhVLgpzHHnvMLFG1eOuttxjkUBaOk0NERERERJQHgxwiIiIiWnNSw1PsROSHQQ4RERERlQVpzlboRJQLgxwiIiIiqm43zqCl5QxumEWqfr5Bzvbgk2aOiIiowrBAQ7R+yc//li3YYqaWM/xNsB75BjlX46+bOSIiojKwUgWXUgREzjwYYK2Md85i376zeMcsapL24IN48Pk3TILljedVWmrbN/C8bGNPqW1d6Q/uw1l5g52nM40qyDjCO89j39Qt3Lol0znsuHbdrKP1hM3ViIioIqxYwWXrfoyP78dWs7gkpciDlmbns3j26ul0MKKClNNXd2KnWcQbrwFDN3Hzpkxv4ohzWzyrVtnrzuNrD72Ds5EL2PumSRvajmMRV2BFGd5++20zly3XupW1A4HUD2MLotEWMw+8Gk7fKAmPm8SMGyhhFSaZNOeNCztdpZxpseepnDHIISKiCuFRcHHXmmQsX8PpFrvg0oJ0xc84wqkCjSro/IF5j3nvGV0IsgsxPtvqdYq9v9R+VQEodAiXLx/CTrW9rm2SdRn7p9Kqx1N7gQuXrFDkjYFj2L5XJdie+Da+/YSZx08xO7UdWx8yi/k8XJ8OlijL3/7t3+IP/uAP8NprKpB0kTRZJ9usrhbs6R5Ch/zMpqIYQ/1cXttjbpSc68bQSfmZlZqfQ9hxzkqfOnEFHfK+rQHsuHwNcivlxqvnsaMbuKizu65+s2zDIzJLZa2Cg5wxhJqjmDVLtAZmo2iuqUFz1PEpSJrzcxkLoUZtk5pCY2YFEVFxfAsufi5fwbYBu+ACHAqZIKSlAzAFGpmiXzTbi1QhKKqKSnm29bQV+wdOYNeuE5hS24/vZ93Oanj4awew/dgA3tC1OEcQyupZ+B2c3SfNz17DUze/jVTMg++h2zRN26erdx7C184fwOzjprna4xewt/9rKpW8/NIv/RL+zb/5NxgfH88IdGRe0mSdbLPaWqLmZ3bPResGhf07Q/1cHrArdR7Zhl3yeiOBK470rU/vw66hiyr0kWDpChI3VFhzbQf2HNiGKxLlyPY7Aqy1rQBlEOQUH6zMRptVgbkNg2aZ1lBTD4KxLjjjHJv+nNqA0WQSSTONYkR94kRExfMtuPjZtQ9Pm5KILrjIXdkbr+I8HAUdN2chKN+2hZKmbLfGwXhnJT2Bp55VAcvjx7D9gFdQIsGLNEF7Cq+lnrN5At9ONVUbUkFSRKe/8Xy3ad72Jo7snMKxgcznfSiTO9BZ6wAnQ0tU/c44h24dtBRPxUG4dn0cF69swyNbn8a+Kyqf69ewY89yfynQaljTIGepwUp9eALJRD+azDKtpUYcPBxE5JQ7dJnFhRjQnxhAq0kRrQOZy0RERVtmwYWq0xOhI9iJZ/FUuprGgwRDU5j9qVlMeRj10i7tL01NkM5DAiP3MzzkxRnorHmAI81DnTdAdE1NjuZlulnaIZw2b5GmaZe790DCGLk5gpMncWXf09iq/snixYvANrZVqwhrGuQwWKkSrQMYRRsyWqLNXkBsMoiGerNMRLRMvgUX025e6AKKmXdKFVzkbizSBZqc/LYtYH/ObfhMzip56Gs4n9EUzfLO2ecdQcobeO17O1H/sMw+j1RHa+9cwgV5Vuc3tmL71DGkKm/sdLZXy8sOdNa8BkfXuHSknqPbIh2WDOTqFKQF0akTuNJhbb/z0A6cszsqUAGQ/IDvM1XCsjh0ZVuqhpjKGzseoJJoPdiPeJ+r2WFTI9TvAyKikvAsuGzdjwF5UNikh67tsNrZC/Pwvy64nN+HKV1wsZ6ZsQs0MoV/YG2ezWPb6zn2Z1PH1GueH+L4HCWmApDHU907P69ClvweUgXSY/YzNg9KUzTpRU2teLgeV7tNujRzG5IA6Ql8+80jjnTpaS07cCJvEtysaYCjqZ/bcdO0VU+mqai7B0Tnsm5Sam8vz+PZVADkbGoqtcjsRbFi1Mx9dF0elcDi4qJjSupXWbGwsID5+QXMzc/h7t053LnzMV45G8PRYydNFvmdfnkIh7/5dbPkIg+qdwHDE2F43fR/77338MADD5glhzzvo5UxMzODhoYGa8H1GUjzw1PoRDwmaQ04VdOHxsQEwvyAVkzG50FUxvq+8xIOPKcKmB7ef/993H///WaJyHLp0iU89thjZomqxVtvvYXdu7N6htD80nOR7wlVvmL/Dhw90otnOtqwadO92LixTk91dXWord2A2g216rWWNTlUOvXhw0Akgkm91IqD/WoxEMroaGAslLlMREREJCRgKXYi8lORQY7usCCgCtOTEQRqajKfBaE11IqB0R4zbz1zleiPo83RhXQb2tnxABERERGtqLXvXW0JwYrusMDRLfEAS81roz6MCXdzwdYBJB1p7s8qyQ+LiIiIiFbY2j+Tk4fvMzm0JvgMSHnh50GVgs/kULHYFKl6LeXZG6puK/FMjm+Qs23HlzH99jiDHMrAQnV54edBlYJBDhER+VnVjgeuxl83c0RERERERJWDvasREREREVFVYZBDRERERERVhUEOERERERFVFQY5RERERERUVdiFNBWFvXmVF34eVClK0bvayZOF/90hIqLy0Nvba+b8rWoX0gxyyAsL1eWFnwdVilIFOcePHzdLRES00m7fvm3mlkZ+bzPI8SFBzocffmiWiMiNQQ5VAgY5RESVh0FOHqzJqR6sOSgv/DyoUjDIISKqPJUc5LDjASIiIiIiqioMcoiIiIiIqKowyCEiIiIioqrCIIeIiIiIiIoSDofNXHlikENERNVjNormmhrUmKk5OmulNUeh5tLsNNf2MoXGzDZiLJSxrkZWuvMz2zQ3OrZzTPoYbH7HIttm7FiyVWmpbccQcuab2taVXtMMvbuM8zJpK04di/vc8nFd/4xr5cl5viG1ZPNL9+Nz3YrNx+/41+T6E60eO8Ap50DHN8jZHnzSzBEREVUCVUANxNCZSOreQZPJUQSnE2ZdDk39SOjt1ZToR7zPKqjPRptR0waM2uvUNIqRzIKvFGbb4uhX+5yYTufR5MhzIlxvNs6hqQc98b50YVjl2xdvQpNZxNiIHIg5jgT6nduix3GMEwjXzyLa5bgOo0FEuooMPoqkr5W6WINmuWCJaQRT56U+r0hXjoBAnVez/kDMeQFtOqjyS8/Hfd3UZQ6l80n0x9HmCjyzeB7/6l9/otXkDmzKNdDxDXKuxl83c0RERJUiiIZUTNGKgYFWM18gVWidDDagXhVJL8SggpcBlUta64BjWQIcHVRZBeTlaUR7JxC7YBWFx05FEOxUCbbWAaRPJYHpSed55hFoTAdLK6Q+PGEFd2a5YBnnFUBjzgzkvHvQbm/f2o6eyWmV6pderDGMDKbzqd/biab4TO7gpJDjX4XrT7RanAFNNBo1c+UZ6LC5GhERVYlWtPcMok2aCOW7A+80GUHAbloktTIHVal19gJiOQOJGLpKFuBYAuHDCEZOYUzX4vTj4F6zIkVqLOQ4R9CedAZf5pzVZDWXqkd44jCmA+ac5DiHwyq1zMk1Ryf25jzQOGZSUYcEFfayX3ou7uvmUt+AYDHBUur4K/T6ExXBDnCcgU65YZBDRERVo3XANBFqH7EKmIUEOxnN1ToRs5sWNTWq4rKPSaCzv9TNkEyQFoggeNirUCyFZznOdoyknvNoxYB97KnmUs5mVwn0N00icqqIoG9NmKaGOYMBda7y+djBQ00AER2I+qWbt3nyvm5Ll3n8lXf9iQrnDmzKNdBhkENERNWndUAXXnsGXc/Q5GPfvdevMZjWY9maOrE3PIBEZwyBYmqN8mg9KE2+HE2vPEkwNInsx41Mc6mbpiZI5yGBkfsZnnIjD/v3obGQWrH6MCbs4EQ/+2QCUb/0gvg0M5udQbygfFzHb9fEVcz1JyqcX0BTjoFO5QU50gZa36mxpvw9sdCKMZ9Fxmcgac4HPr16JiIiKhX9e8j0giXzzt8xdiHVI2CZvRAzz964jI1gUBdsW6HiDUQCmT1sjYUyl+vDw6oA21a6v0W6sJ75HJCYjYYchWR5dqQJjVL6Vr9jU6dsN7HbLecbQaryIG/TuzWkP78CA5wM8nB/BOjc6/oM/dJdvK5bvVWTNmLSfb8jTl7Hr79vFXL9iarY2gU5+hfDEoKVonpioRXX1INgzPszKKhnIiKiUqnfi04VcKRuqqSaD7mbM9UgEOtEwn5iPOOZHPU7a8JqciQP0+setux1ampDuysAkTv18rcoUPjfMef+CuruWJebVcBlv0cfpFWoDjQi3mbSpZnbqARIcr79jnR1HVwdKJSa/n2v9j9pzq3Q+1k6kFD/0ueWpzyQunEWQKwzgVTPdX7pfjyvm1QAStdsVnogEsRono4rvI8/sOrXn4iy1cx9dF3KnlhcXHRMSf0qKxYWFjA/v4C5+TncvTuHO3c+xitnYzh67KTJIr/TLw/h8De/bpYMuYsCu1cS/6rq9957Dw888IBZcpOHMLuA4WLvANFSzczMoKFB/bUVEqjK5T88jcBIO5LyYdppE3txgZ/Nisv4PIjKWN93XsKB57rNUqb3338f999/v1nyd/LkSRw/ftwsERHRSrt9+7aZWxr5vd3b22uW/BX6d8B29Egvnulow6ZN92Ljxjo91dXVobZ2A2o31KrX2jWsySmq20gfqZ5MzDKtDfVZjqIt884dq+eJiIiIaI2UxzM5SwpWCumJhVaLPCxrD6CXUtSDn0RERERUTq5fv77kaa2VQZCzlGCliJ5YaHXUhzHcGcOpC/Zynp6JiIiIiIhWyBoHOUsIVpbcEwuttPrwYSASkeEjlMJ6JiIiKglnb1lERLTurXHvasUHK0X3xEKrqBUDoz1mXoKeQnomIiJaBt2rVjOiM2p+xuq1k38TiIhozYKcpQYrUnC2uyO2p7xdRdLKkPEcTFerKTIAnyMt6/PK0x0nEVFR9KCfw0BsEIMxYJh/E4iISPENcrYHnzRzK4PBChERLZuuyekCOnvQ0wl0sSaHiIgU3yDnavx1M0dERFSmdE3OBMIyXFRDGBO8YUZERMoadzxARERUAhljrxER0XrHIIeIiIiIiKoKgxwiIiIiIqoqDHKIiIiIiKiqMMghIiIiIqKqwiCHiIiIiIiqCoMcIiIiIiKqKjVzH12XcTixuLjomJL6VVYsLCxgfn4Bc/NzuHt3DnfufIxXzsZw9NhJk0V+p18ewuFvft0sFee9997Dhx9+aJaIyK2hQQYIISpvfd95CQee6zZLmd5//33cf//9ZsnfyZMncfz4cbNEREQrbWpqyswV75FHHtG/t3t7e02Kv0L/DtiOHunFMx1t2LTpXmzcWKenuro61NZuQO2GWvVaWxlBzgMPPGCWaK3NzMywUF1G+HlQpVjxIGcshBA4Vg4RUSlVcpDD5mpERFS5VHBTU9OM6Iyan4miuaYGzS++oF9rMqYQxmat9Znp6r2zVlbALKLNKq05quYcy1nvMftIbWdI/pKWtR/HPnIdg2tdc/rAiIioSAxyiIiocrUOIJkcBmKDGIwBw8kkJro/DTT1I6HmpUWCNQ1AV/JkpU8gXK9zUkHGBcTQo/7FcEHHF/UIT5jtEv1ocrxX7yMX534SnYgFVJBlVnkfwxhCgRg6E3baKILTCfMGIiIqFoMcIiKqXLompwvoVMFJJ9AlNSBDPzcrizN7QUVJnQfRHpxEzIpySqO+AUEzm1sQDXbApUKyAbvtna7hcdY4ERGtDmlyttRprTHIISKiyqVrciYQlkfTGsKYSJpalskIAo6mX7q5mmzvTnc0TdMxzt56tLb3YDJ2IbMp2nKMjWCwqREBs+h9DK1o7xlEmyyHUnU+RES0RL5Bzvbgk2aOiIiozKlgJ6PTgUKbq02EoStPdFO1TqgYR+XVjp5Ju8naEjkDmb5GJOz9CJ9jaB0wy+0j1vvsYKdegjdHszoiIsrLN8i5Gn/dzBEREVU3aao2mQpM2jCIZTZZswMZeZZnchpFPV2ja6dG0TM4kn6Oh4iIisLmakREtM5JU7VJ9IyamhSZRvM0WZPnbFy1PTpQCjaka2yE1MKMAm12czk/8tyNs5na7AzidhM3PpNDRFQ0BjlERLR+ZD2ro4KHS9JUrR8Hnc3d8jZZa8WA7jUtnVcg1omE10A9rQNI9MdVoKP2dVMtex0D9qIz3pZOk57Whh1N3IiIqCgMcoiIqLpI7YnzGRibfrbFUVujpwmEd3ttr4IY53MwXnm687PXe2xbH55I78v5Hj3JfhzdVafSUm/mMzlEREVikENERERERFWlAoOcMYRSVfzONs5+6bRizOjcGaNyS5pzFHA9hoX9uaiJXaMSERER0QpbwyDHGZQUWvidRbS5DbAfDpWHOXWB2i+dVlxTD4KxLs8HYmejzajRH4v5XNQ0CvYWREREREQra+2CnLGRdFCSTKA/3ldAzzEJTE/2oN1+rlM/GCpdc/ql08prxMHDQUROuUMXa2C9/oQZm8JoHchcJiIqibEQWFFMRES2tQtyMgZukyAliIaCHqqMYyYVDAXQ2GQv+6XTilOf5SjaMgsYMrBewZ8pEdES6SaxzYjOqPkZ04T2xRf0a0ZTWd2Lmqs5rTDNbq1tQhizl10R01hIpcl7fbbP2WxXtzYw73cup/JJT77HLm/M2LdrnyLXsbjem8pXrkmB6Z5BpGe+6SbjukbfsS51bFnvM+fo5pF/6jjsczOLWlaa+9orXu9zc+1XH3eu/bm2T12DXOleeTm3y3qvTAV+F4horZ/JsX/Rj6DdHo06J3eXnQFEdEHaL928jVZc68F+xPtcv7DtMR6IiFaKHjhzGIgNYjAGDCeTmOj+dHowztQ0gfCD5j1O0nOZDNiptzd/h5p60ONsXaAKlH3xJjTJvM/2fs12NbnpA5Wn+r/VJbWjJ7VUXtay77HXjyEk3Uon7LRRBKc92ivkOha/a1JIujrOeJtPoJP1fuu6SICju9VOpatjjgTSBfKM/OVveDo4ylDocXjJuvaFKPBauzmP09ls3i/dzfO75Xivnor4LhCtc2sc5Ni/6Nsx4ncXx013pWl+sPUvA1OQ9kun1aGu/3BnDKcu2MvZA+UREZWcrsnpAjpVQbYT6JK72kM/NyuXqhHtKq+Y+QU2diqCYKdK8OXXbNcig4Si8yDag5OpPJfGefOuFQNeY/LkOZYlMwXwrJtZvsagLhv6M8b6kRuS/XJhs/OQvxlmNqcij2Pp176Qa52DX7P5kjWnX+bxEa0Daxzk2FrR3jOJ4m5EzCLapX6Ddu7NGIvAP51WWn34MBCJYFIvteKg+lsWcd2ZGwv53KkjIloKXZMzgXCDmm+wbnbp2hD3gJt+d899BNTvs2DklG4y1Bfvx8G9ZoUfr2a7mvV8YufeelW+7cGkVwHfzfPY5e/kINpkOV81ht+x+F2TQq+VvnnlUUDPGtxUmlrNIN7UCXXamfzyGBvBYKE3J/3yyLKEa68Vca19zEb7PM/HL93Xcr8LROvYmgU5s9GQo+ZmDCODTWgs5Kc+1SVxALHOBCbs0dH80mkVtWJgtMfMS9AzYUb5Nr+c1dSGdrUVEVGJqYJ9xs1sdzMfr8FBczIFyUAEwcOFvdez2a5uLmUK+/oufgE13D7H3jpglttHrN+pOQq43k2Ifa7Jcq9VVpOqQpqfK84CfF8jEkV/Rnks5dobxVzrFMf56GZ69vn4pReiBN8FovXKN8jZHnzSzK2M+ga5y2/90NfofoalnalZmYu+a2f9cGcEMn7ptHKk2YD7l7V8Do40a5Rv88tYJlapE1GFkEChCY6eO/NxN9tVpLnUZKqQ24ZBLLfJmqL/3o2iZzBHl/wex7JsunammNoWj6DCmYddgJcm5sU04SrwOEpy7Qu51jZnQOL82+iXXgrFHB/ROuMb5FyNv27mVogjKJGJZV8iIiorciOn0FoJI7PZrjSXmkRPargENY0W02zKQXrTct6tL6Cgn3ksyyUPuxdeq6X+yFtNlructUlWHlnNyeU6ywP5jl7Z/DmOwyOQ0oFNsEHlv4xr73etc+5vFS3hu0C0HpXJMzlEREQl5GwKpadmRG+60+XZEVVgVIVm645/AYXsvNs7mu3q5lL9OOiMkgppNuV17NiLznhbOk1618p4qN9LZhPiwq6JX3ofGhPF3ZDUTZY7Y448rEG7PVtbtA6Y5s0enRD5Hoc6v4yeVU1zMFmZ69p7fQ+sLSz1ftc6x/6Wwn0MXt+tjG1kWup3gWj9qZn76Lrc4MDi4qJjSupXWbGwsID5+QXMzc/h7t053LnzMV45G8PRYydNFvmdfnkIh7/5dbNUnPfeew8PPPCAWaK1NjMzg4YGecKXygE/D6oUfd95CQee6zZLmd5//33cf//9ZsnfyZMncfz4cbNEREQr7fbt22ZuaeT3dm9vr1nyV+jfAdvRI714pqMNmzbdi40b6/RUV1eH2toNqN1Qq15rWZNDRERERETVhUEOERERERFVFQY5RERERERUVRjkEBFR5RsLeQzESURE6xWDHCIiqlx6IOhmRGfU/EwUzTU1aH7xBTT7jdqvUqPNNZmj+kuvVqneq2TK7uFrNtrsWK/2IRtkvU8m13s9tskKxlKDWZvJvYHkkXE+cg7p/Xgem7XC432O/WS9x+PaGEs+f8P3GLV8n4npecz9vqzzqyZjCGWcm1p2Xg+T6pnu8bmkvlK51hFVGQY5RERUufSYa8NAbBCDMWA4mcRE96fNSg+6a+Ee9c/VjbNzwEbdTXC6ICkFdN1VsL0+mUDntBlvxT0ifdJjYOuMvPsRb0sXLHXhX/esnM5jFK6BHaVLY+fxOkbyzz62UQQjAVcQYatHeMJsJwNwOo5Ld+vsc22We/453y+89itj56SO0YxV1NSDYKzLM4iqJvo7oQcvTRsLWd1vy/XTXW2bL5Bfeq7vXNa6vmoNFGm9q4gupD/88EOzRERu7EKaKsGKdSEttSBtcfT3BzGNRsQjEeCFQ8AffxrDHqPLSwGyC8M4PB1AX2PCFO6jaO5SAVJqe7k7PoJ2XbiWeRmbxSN4yXqfB69tUml7ccGayc7bxT5ufbzqnJtnDqr5hPex2fmr2K/L7/g8jsvz2iz3/HO93/Der16Rzt+ePzyNwEg7knosnEL2X6Eyzs35fXSua8Apr3Svz91vnfz82NeTyEMldyENCXLu/rfryTsfJpIf3Z5J/u0vppMf/PVPkrd+/uPkL/6PePL9v/rfkv/1Zz9M/uynf5q8PvOfklf+y+vJ8IGe5K1btwqejn07quKlpXn33XfNHJWDq1evmjkqB/w8qFLI3wGvvw8yzc7Oeqa7p0OHDpncPIz2JHtGzXyiP9nU1J9MmMW0RLK/qSnZLyvU9rC3cW+fa52TrAOS6u9tenJv6/n+0WQPepKj+v3q1aTmJMdkTnC0B9a5+h6bI/9cx56xrsBr46SPfynn7+SzX+F8r2O+sPN3HZeeCrzW5SDj3MznqeeFveyT7nldHOsyrom59kQ+vH4XFzPJ722vdPdU6N8Be5JYZPI/jSR/dHlMxyaJ6TeT78xO6HjlvZuXk//7X04l2VyNiIgqX+tA/tH4Hc28UqPf2+10nCPL9zUi4Vk74HimxX5ewt1cq9hahaZGBMxsTnK8g9KMbRYz8R60l/rGe65rk7Lc8/d4f0H7zdR6MF8Tq1YMOI8pNZkaj/Uuo7laJ2JdbK5G1YlBDhERrQuzF2KYTAUz8szDJGJ2idou+MlzIJPTSFipQH0DgqmCt3mmRbbRK5dodgZxCW4y8s6nFe09ccyMqaAg2G4V1v3eb+dvFgvhe22We/553p/zM/FTH8ZwZwynLpjlLNK8ywRTGZPzgf0K5vf55vrc/dbpz8fxfSeqIgxyiIhoHZjFhdiktPhK39kf7cFkzPEAvJAH3keBtlSBuBUH+4FIye52qwJ4IILgYanxMHk7OjkQYyHvwnhrexCRNvXeVDWO17FZ+aNzb44aFbdc12a555/r/QV+Jh7qw4dVphEVEnmptpocCXAHMWK+FDowDDbo7493upvzO+cyNoLBIgNiokrhG+RsDz5p5oiIiCqMs/mZ7oJYmkX146CzlGs3j7pplm2tA1ZPVaY75PrwBBKdsXR+ziAiYz8yeXShnLGNPISfTDWt03nrfaXzaIOpqXGT41X/nE3Vso7N6qot/fC++zpYqZlyXZsSnL/v+3Pt91IUzWo7q5bH67hVIKMComqke1dLnbvVK1rrgI689fULRIIYNV8gv/Rc37mMdfJ1KbaJJVGFqIje1R544AGzRGttZmaGvXmVEX4eVClWrHc1IiJaMZXcuxqbqxERERERUVVhkENERERERFWFQQ4REREREVUVBjlERFT5xkL6AW0iIiLBIIeIiCqXCm50j14zan4miuaaGjS/+AKa7cEmbbNqnaTJa6rXqXSvXbpHq1S6ykO6CLPfY7bR/NIc75UpM+Ayg2A632feo/djs/POlZ97/3pbZ49mMkaM9CbnzMO97MzTMUCna8p5Hc0iFUN9Nva1sz8PV2Q+FlJp9nfA99p7fWYevfoRrXMVGOTIL3CvH2xnuk83mVRa5pe05x9ps2gVQByfF2+1ElEptQ4gmRwGYoMYjAHDySQmuj9tVnqQcXBkMEo9+Kc1booEOIFYp2Pk/gQ6p/OP1ZIhYxR514j8uqtk6fzZHhTTaOpBMNblXTh159dmghLX4I0yNoqMrDmdSrAHGs0+T+88zQCdJs3a3lrOeR2pKFYQLYOdOqjPvyfel/781d/PvnhTAQOtOj4zmaQr7aZO7GU/0EQZyiLISd25MMv59WDU/uFOTkCGAxgLWWMDSJoec4CF6dWR44+0/qWuPxb7s0piFCMMQImodPSNlC6gUxUYO4EuufEy9HOzshBjOBUB+oedY4WoQuTAMsYOSUxnDMqoA5HOg2gPukfzb8TBw0FETuX5rWgCFitwkgEg45gx2SSmgzis8oinE9Jj2OSSkSetNBkrSAeRZtnSiHb1nbW/E2PqixjsVAlFGUOoLe76/hKRWPMgRwKcPhW05L9zkcsYRgbTA6TV7+1EU3yGv7hXhd8faRnJWhUcEpkjTLcOVOqI00RUlnRNzgTCMlxUgyq4J00NhHuQShlc0XpHJl3zkeMueKH5ZAywqAqdqREurd+FnWoHre0eo/mr4x9Fm6t5mwdHDU6g0S4Yz2JG/Q4OtLYjaPIdGxlEsKHA4q6rVshToecvhW3ndqmJLStyCYQPIxg5pZsT9sX7cXCvWSEKuPZygzfeP6xv9hJRpjUNcuROf19jAhMH1W/sogymRofOaCplK+QXN5WO1x9paZ4xGUShf2uJiJZF/R5KjegunE2zZMq6i+7F8ayD3bqg0HwymoJ1ItZl3q+bqpkgyh7N3/Vnq/VgcTUqciNPt0/TeUuNUUCFOvI3TwU98fQNv5Io+Dq2YsC5XWrija3cpGZOlWlUABM87KqNyXftx0JoU4HRMCMcIk9rFuRIgNOFYUwU/cPp/EU6imDEpz0zrSrPP9LSLtzMEhGVJX1TzA48zLMOBQVEOThutElTtcnUHXl5JsPdZE2pD2O4M4ZTF8yyF/tZG5mX/AdHMJaYRlBHNPWQuGdmNqFCnSJ+7zrzXDbW5CyV/P1sQrHBKZupEeWzRkGOVN9PYjISsH4JShWs/BEo6rkcEUCj11+ikv7ipoK4/0hnFByIiMpVK1QZExG75qUUxkYwqP8GWX/reszzonoa9WiyptSHD6uDyNEULONOv/VcTl9fHI3mD536lYtYVx/ihTyPo7nzXC7W5CyZPB9V5HViMzWi/NYoyHH1DCJ3zaRadqKAX7bOsRBSTaKs6t4Rk67vnDke+qTVkflH2hQcApl38cZCvKtHRGtIeoC0b6yZWgZ5KDzRGUs//6DWF/TwvpPz+QnpcEX+nunmZP1IPZ4j7CZrN81yigoSpJcsW8bzGH1oTCQzmuPJczmTdjO4VMJk+nkcj/PMlyetHN0RT+rzqEHoTbNiSeQ5ZPk4zY1iPfFvK5FbzdxH1yXOwOLiomNKYtuOL2P67XEsLCxgfn4Bc/NzuHt3DnfufIxXzsZw9NhJk0V+p18ewuFvft0seZBfxl3AsEeQ89577+GBBx4wS4r9i9ssyh0y65e0VJXb3TNK72u8e7QSZmZm0NAgT/gqXp+b9HTU15gKWOUXeyDiuDfZM4ok/6qWTMbnQVTG+r7zEg48122WMr3//vu4//77zZK/kydP4vjx42aJiIhW2u3bt83c0sjv7d7eXrPkr9C/A7ajR3rxTEcbNm26Fxs31umprq4OtbUbULuhVr3W+tfkXI2/bubKjK7WTdcCpcvLzqpyBjirQj4Ld2AqPR050nS3mY7PiwEOEREREa20Ne1dLcWrsExERERERLQE5RHkEBERERERlQiDHCIiqnzOTmmIiGjdY5BDRESVSzo7qWlGdEbNz0TRXFOD5hdfQLPPkAS6l6tUj1SOAaWlIxXne2RZ8k0lSOc2rh6s9DaO3q3McsYg1Xa+Gdua7Z3r9caGTnsRL9gDk7omr0Gwc56XI92a0seale7xHp2X5/Y7sW+nO82aPK+BWVQJiDanr23Bn4l+X+Z+Mt9j1ruvp+K5D89zcn7mFSrX5+e6EzAWUmn29zPHZ0RUiRjkEBFR5ZLOTpLDQGwQgzFgOJnERPenzcpMurfHWKdjFHkZUDpgFQIdA3jqbS+ozJqA6VSCx/hr8jypPQSC3eFNUw+CMZ9Bqp0j2I8CbR6F8bT78VV7qIXUPqxl9yDaOc9LuEfOTx2rV7qMnxNDZ8JOU3nZFyFr+ymcnzLzuY6xfi864Rg3TXetbXV/nffYMziGn/Dan863R/3LHKMtex8JdE6bsYqyzmmi8seekUFiU2MzmUHTpcty9d3sifelv5sqsOmLN1kD3+b4jIgqFYMcIiKqXLompwvoVAW4TqBL7lwP/dysdBrDqQhcI8S3YkAVlqEH57QG2JwxhbzEdBCHDwcRTycUOHZOIw6q90VO5Wk7p8fLSQdVS5fvvJZCxp8zs5LXsnvFrMde9dnE7BJ06lqW9th1YNp5EO3ByfS+PPehgqWBKu7sSAX+6Y/MOWh6I9odn8OYujDBTpWg+X1GRJWLQQ4REVUuXZMzgbAMF9VgDTHgWZOja2I87kw7anBkPE2rkDeLGVUgDKhAJGgK22Mjg+mBNvNRxzSKtpzPCM1G+zDorhlaigLOK3MQUJlMszTPdGtw7TZZdp+Ae/ucNVGZ6huCmDQ1QqlrWcixF2wWOsZRmbW292DSDpL89mEr6JykqaJjm9RkrmM5s2tkHrQWA+HDCEZO6eaKffF+HNxrpQvPz4iogjHIISKiypdx93pp6uVWthTydMGwAfVyFxxS2FZBT7wH7UXk33qwH/E+V4HZUaDWzadWa+gEz2Zp/umtA2a5fcQqzNvBjnv7Yo5faq4GR1RQUPy1LIizeZWuJctssmZxPNNjBzMFnZNzHD7nZK5j2TJND101ZTqIDUQQPOw615X+jIhWGYMcIiKqfrp2wKPg63zWRraRQp4806BLeFYTnpnZhAp1iqx1qQ9juDOGUxfMsnAWqEsV4BRyXkula8lGTcF3uUxzwDEVjATbreCghMcuTdUmU0FkGwZhmqxl7MM80yPP8+h3FaoSa3LkmPvQmMh+xkgC8CZ4BTEenxFRBauZ++i6/L7F4uKiY0rqV1mxsLCA+fkFzM3P4e7dOdy58zFeORvD0WMnTRb5nX55CIe/+XWzVJz33nsPH374oVkiIreGBmmnQ1Te+r7zEg48122WMr3//vu4//77zZK/kydP4vjx42YpB+kpqgsYdgUSqQfQU+lSEGxDvD+RelB+LNSMvjjQOWwKh2MhNFsJWQ/8a859Ze3Xyn9QgpthoMvjmLwKo/o4pw8jaVdN+ZyPLed57b3g/V6/PCX9VAMm3Pv2PX4jzzFq8vxU2yB6RpOpWrclHbvI2J/U0AQwfTidr95XX6POV63M3Eeh51Sp5Px05xGOAMfv83Gne3xGtL7dvn3bzC2N/N7u7e01S/4K/TtgO3qkF890tGHTpnuxcWOdnurq6lBbuwG1G2rVay0gQc7d/3Y9eefDRPKj2zPJv/3FdPKDv/5J8tbPf5z8xf8RT77/V/9b8r/+7IfJn/30T5PXZ/5T8sp/eT0ZPtCTvHXrVsHTsW9HVby0NO+++66Zo3Jw9epVM0flgJ8HVQr5O+D190Gm2dlZz3T3dOjQIZNbHon+ZBOQVH8HzdSTHE2tanKkI6kKcxn0+qb+ZMIs23m5t9My9qP2IcvO94rRHis/r3U29/G6t8v1XsP3vPze65tnItnf5DgWNCX7ZSP3MTrXiQKOUV2MZI/js7DlPHZHuvNzzNif575lX+njc++jSVbkO6cK5T5XmZpeOFTg98D7M6L1y+t3cTGT/N72SndPhf4dsCeJRSb/00jyR5fHdGySmH4z+c7shI5X3rt5Ofm//+VUsiJqch544AGzRGttZmaGNQdlhJ8HVYpVrckhIqKSqOSaHN9ncrYHnzRzRERERERElcM3yLkaf93MERERERERVQ72rkZERERERFWFQQ4REVW+sVDOwTeJiGh9YZBDRESVS7q8rWlGdEbNz0TRXFOD5hdfQLNz5HrpJle2SSVIN8UhPeq7bJ8a8yRj2ZpSgZPHOr3frDFeMrdrlg0kzT2Svp2Wla8ZeyVXujsvuQY5z1fJys/j2HVXzGpdVl7mPGyuY5BuoNP5Os7ZkWZNXvusJOp74772GeR75TrfS5nXyrrGzuvgGKDUNdnX3PP6lpTHeemfK8f+XJ959nkQlR8GOUREVLn0gJXDQGwQgzFgOJnExLd+A8HJaSTMJjJQpIz+OJ1KMINN1ocxIQND6kE6zej1zgE71bp4myPQcY+On3QPtKgKi3p8Env9KIKpnebgzHcUaLMLk37pbuoajAYjOGWOc+xUBOgfzhoEMvPcOhELuAaznL2AGHrUP9cAnU09CMa6PAu0qXFu7HyTCXROX8g+fj1lD0y55rIK796sQEMGGc2nB6PO8929F+pKp6+nvsad2Ju6DmaAUtk+9V20lmVcpuzrq75TkUD+QGc556XHykHqPPT4UPX5zoOo/DDIISKiyqXvOHcBnapw3gl06TvPAWvkdlMgS0wHcfhwEPF0gtp+b/4BIE0QFO/LX1hMC6IhlXErBoodUbG1HT2OAC3FL92QUez1carCbd9gDw7niybqG9SRZtLBYOdBtAcnEcuIchpxUF2/iB1FpYzBiqecA0yqQvtAlQ2uqdSHJ6wgxCwXrh571fcydT0L/e5pXtdXfafUcagMi/hO+vM6r7GROPoTJuhPWc55EK0NBjlERFS5dE3OBMIyXFSDCkrMnedAo10gm8WMKqQHVJAQNAXDsZFBBNORSG4SDNjBxWQEAdOER09Zd8pbVXA1iDZZt8QHhGajfRiUWiazbPNLT1EB2eFgBF1dMQRH3QVUD2MjrvxmoWOcvfUqnurBpLsQLbVFaMt87knXiOW4m5/3egl3Ey97ctUyVQzz+avJrm2pbwhi0tToFfXd87u+zu9kyY1hZHASkUD6s7A/8yWfB9EaYZBDRESVTxXCnZUm9XLbWQpkullNA1TYo0IdKRiqoCfeg/YiK1g0d/Oriewai9YBs659xCokFhLsOIIB3TTJztcv3YfU5qgwBQf9zs0ZdPQ1ZubnbH6ka41cTdaUVG2RWc7keLbEDmYKuF4qVww4t0lNBQRqS+YIrAIRTDquiwQmzmdginv+xXku0qzMNPGT6zk4ova6jO9eQUp1Xo4md1KT2WYCzlU7D6LSqLwgx/UwY+oHNSOdD8OtCnPNM35ZutsBOx5e1NMS724SERVF7nZLgSwxjaAujVnNbWZmEyrUyVEj4mY/v2MWC6ZrmEZNoTAPZzDgDAT80pfKzk+aJ7lqAqSpWrpQLM9ouJusKfVhDHfGcOqCvSw1CnYwZJ4tKbpJ11rU5DiCETlex3WWWkDdhMuxvDQqqE5dCKnhi2NmTAWSwfbCg7eM6+vg+51cgfOSZ3Ga7KafSzwPojWyhkGO+xdbgYGJ/MEaNT/EqTsls4h2OR72HA0i0uV3t4lKKs8Dqc6HF2UaRQF/8ImIls0qkPX1xdFoSoOqzIhYVx/iRTwTEQpEEDxcYIAhN3mcN3JSHRxkF1Z1UBGUGqY1IM8aSUcGqUBCmqpNoif1t1X+jno0WVPqw4eBSESFQKIVUnm0vL+3a1GTUyL6Rp8jGBtzdGMuNWOT6eezWttVuaRNfZeKqv7wur7Wd3Llnoexmlz2pW4gl+I8iNbGGtfkuHohKeQnNqNJgvNOiUOgcQkPB9LS+D2QarXvdj+82DpQAX+4iKgqyHM5k84eoHTCZPpZAimkppr1mMKqs0lXTR8aE8n035yMdR435+Sud7wtvV56WtMPjauCvO7NLP1e3fys2E4JbBnHscQaD/W3NNEfV4GOOodL0lStP7OZm91k7aZZTlHnogIgm9QOJDpj6eNxFsDzXa8Kom/aOZqAeTZKUN8v6Y3Pvg4Zz0bJ9VT/io0Nsq6vdedwGTVMmbzOq3Uggc5YwJyH3EBe/nkQrYWauY+uS4yBxcVFx5TUr7JiYWEB8/MLmJufw927c7hz52O8cjaGo8dOmizyO/3yEA5/8+tmySY1OSNoz3O35r333sMDDzxgllzkD1QXMKyr8SU/uxvEJlW4LsOuKqvAzMwMGhrkCV/Fcf0ToRqMtKvCQMCkDQNdgWkcroS7cRUs4/MgKmN933kJB57rNkuZ3n//fdx///1myd/Jkydx/Phxs0RERCvt9u3bZm5p5Pd2b2+vWfJX6N8B29EjvXimow2bNt2LjRvr9FRXV4fa2g2o3VCrXmvXuiYnuxeSwkmVrX2XTGqJrbsb0kd/f9OkR80CrSTPB1KX0o6diIiIiGiZ1jDIcbbDdfRCUhCptZFmBKa2ZjaKvrhd1S4PP6pAJ95XsdXiFSnnA6lERERERKvHN8jZHnzSzK0Gn2drvOgH/RwBjtAF6vRoz+4H5Wh1eD6Q6hpReyy0xPbjREREREQF8g1yrsZfN3MrJEcvJLnoHmnUP+dAVTK6tYwAnH7gz/WgHK0SjwdS9YOt6c+qDex2kohWgPNvChERrXtr11wtVy8kOTj7ebcn3cuIdImZSmOnA6tCrrl77AYZG8KRlvV5LbU3ISIiL3osrmZEZ9T8jNT0L+UZTyIiqjZrF+RkBCWOLjqJiIgKpQfdHAZigxiMAcPq70mputclIqLKtYYdDxARES2TrsnpAjp70NMJdLEmh4iIFAY5RERUuXRNzgTCMlxUg9VCgDU5RETEIIeIiCqfCnbY7JmIiGwMcoiIiIiIqKowyCEiIiIioqrCIIeIiIiIiKoKgxwiIiIiIqoqDHKIiIiIiKiq1Mx9dF3G4sTi4qJjSupXWbGwsID5+QXMzc/h7t053LnzMV45G8PRYydNFvmdfnkIh7/5dbNUnPfeew8ffvihWSIit4YG6TuXqLz1feclHHiu2yxlev/993H//febJX8nT57E8ePHzRIREa2027dvm7mlkd/bvb29ZslfoX8HbEeP9OKZjjZs2nQvNm6s01NdXR1qazegdkOteq1dvSDH749bITZv3mzmiIioEjHIISKqPJUc5Pg2V9sefNLMERERlbmxEEJjZp6IiNY93yDnavx1M0dERFSmVHBTU9OM6Iyan4miuaYGzS++YL1GZ61txKxa1xyFnTIbbVbvq0lN1raziDan0zLWmzwz09V+HbvIIvuU7VzR11hIpeU9Fr0ia5+prDzW6eO5lHmeWTLeF4LOzpVXxnUTnvsy79WrCz3+HNfL6xjcx2qWM45P0vJdS9c2mmt/1uQ6Po9tir/+8p0y6ant0tfO+v468pAdFHJsRr5r73mt7FeTrMlxONP0+/0+L/NzkrV9jv05jlEm3xsSrm1Tn18qLf098P25svdr0jU7zWtdivu8lvD7IONztibfc6UVx44HiIiocrUOIJkcBmKDGIwBw8kkJro/DTT1IBjr8i0YBmKdSKhtpVl2MjmKYCSgClRAeMKkJfrR1NSf2sbKM71sTRMI15tM/ajj6In3pY9DFbL64k1oSi36HYt5g3Of6pjibY5Ck9fxPGjW+akPYyJ1bgNoVcXtUCCGzoSdh9r/dMJs7JC1L3lvscffiVjAUcBP8TmGrGNVivpcE+icvuBToFW8rp/788w4/gKu/+69UGeJC6nP+4Ja6sTe3dnnogOUNmDUkccoRqzrU8Cx5b/2/tcqi/o5Gg1GcMqc29ipCNA/7P391uekvtfO8xS59pfrOqYU9z3I9XO1JFnnVV/87wP5+SvoXGk1MMghIqLKpe+EdwGdqnDSCXTV1KB56OdqRSMOHg4iYpfaUsZgld/Cqghja8WAKowglqNAnIvcHfa9692IdnVcMVMalMJjsFMlWEvFHYsp7MX7/O5EL1UQDakDUPsf0MXIAhR7/A1qT34KPYZiPldVSB1wLi9TQde/HnsdnzcS0+q7udfjGGZxQQXl/QlTaDdaBzKX/RVy7f2ulbfWg+bcJGAY7MFhnwh+Vg688yDag5Pp89QK3F/O61j498D/52pp/M9rGVbsZ5YKwSCHiIgql67JmUBYOhlsUAWKpLnLataNoi3zLursDOJNndjrLr9JAXxyGh51GGmTEQScTVF8m71kCoQPIxg5pZvZ9MX7cXCvWbGUY3GuW+LxZGpFe88g2uT9uW43u/elmw0VefxjIxhsakTALKYVeAy2Yj7XXJZy/Qq4/vUNQUya2rCxkUEE06X2NKk1mHQW6F3yHVuh197rWvlRBfLDwQi6umIIjvoFW1Zw1ql23Nreg0l3MFvo/jy/I8V9D3x/rpYkz3l5KfT74/fzQCuOQQ4REVU+VbjyuumbujttlpfF3TxlwtxFl7u1Xk2dUkzhLRBB8HAJaxb8jqdIrQPm/e0jVmHNq4CZ1TSnwBoHZ0GwrxEJn2Ms6Bgccn+ujmcpcgUuy71+fu9vbUfPoDQ7m8VMvAftfhfKM+AzSvTZimJ+BmRbVdTHQb9jtpvfycHIeU66mqwpy/mZK+57UMKfqwLOK0sJPyNaGQxyiIioeqkAZLgzhlMX7GW5q+pRgNF3xnMUOpdJCn5NcBV4l3IsK3mcKlCU5yCsAnoBCjl+uyCYUOdfyN3sQo8h5+dqnqWQfeqVJVTQ9ZfCdxwzY6rgHGz3Dgb9rl2hivnuuK/VMkiTrslU4NqGQXg07Spkf/muY4HfA8+fqyUo6LyWaiV/ZiknBjlERFTV6sOHgUhEFVtEK+RmdaTLeadZHniOSFuVpd2JzflMjqFre9y1H8Uei7WupLVBcuzOu+VFFciKOH45/1GgzdmzmG2Jx5D/cy21wq9/a3sQkTa1rW/p2xyvqyOGsZBXxwxeivvuZF6rpZImXZPoGXXUXox6N+3KvT+f67iU74HXz5VHAKiDmGCDz+dW+HkVbwV+ZqlgDHKIiKjKtWJAFVps9eEJJDpjjvb0uosrTPi3N7O42+DnC2wKkPdYMvbZh8ZEMt0sz+t4brrTXYVmKUiqQpd111qtq9+LznhbOg/p3SrjYfbcirqWrQNI9MdVoOO6bn7H4D5Ws3lans/VWeD3uiZe18/9eWZsU8D1t98vTZ6cNQwe56KPV1+PdB5tMDU/BRxbcd/jzGvleT3y0U26+jObstlNu+R7lyHX/lzX0bbk74Gb2rfuyc/eX43VC529Q/e55zqvXD/fXp9R1s+fz7nSqqiZ++i6BK1YXFx0TEn9KisWFhYwP7+Aufk53L07hzt3PsYrZ2M4euykySK/0y8P+Y50XYjNmzebOSIiqkR933nJ9+9AoSNdy8jZx48fN0tERLTSbt++beaWRn5v9/b2miV/hf4dsB090otnOtqwadO92LixTk91dXWord2A2g216rWWNTlERERERFRdGOQQEREREVFVYZBDRERERERVhUEOERFVvrFQYQMe0vogD6sXMrgnEVUtBjlERFS5VHCjezWaUfMzqmBbU4Pm5XZ55iSF5VRPSSZvrwK0nebaPtVzVa50d15yTs40/V6Pnr+EPn9HvhLpeeVpp2UdhyPfotaZ9Zes9Ixrrvf1Il6wB+R0TVnbptZ5X6vcn+cYQu5zVaTLYN2zWoF5zUabU9tkbOd53s4evhwDj7omOw/vvPO/L7WN+7vgcb4pHsebCv49z8V8hhl5yn7Tn621neOc/b5zzjQ9Ob4/TpX+naWK4RvkbA8+aeaIiIjKlB40cBiIDWJQlWuHkwV0BV0wGeMihs6EPX7GKILTeYezzBwJXcaGsQtvfulu6pxGgxGcMqXKsVMRoH8Y7tPShWfda7DJU02jKGAgT+dx6K52HQXYQtfpaQLhByW9B8FYl6tAez++KgNy6nz60eR4b8bnI+OcpNbLeCeFX3MreJCBG7MlpiXGUftRM8HU+Ccqr4j7OK18dBfD5vis7QLpgm3WeTvHZTEDj0q6x3n6542c79N018bSEXWRg4Y6j1flHW9zBDpZ56I+w917oT7p9D7s0f93uz+bPN85r7yr8TtLFcM3yLkaf93MERERlSl9V7hLlWhVYbAT6Cr5XdcgGlLlm1YMFDvghR5vw2Okf790Q0Zyj/dZd7H7BntwOKuQJQMYqtgnkTkQYutA5nJeMnCimc2Sa12GRhw8HETEjsqWrbBrLuPE6MKoWU4bw8igyUMFjOm3B9CYtfEYrBjSOTaQjLPSrwLn5Q4Guby8rdqog2gPLmP0fRNE6u+SScpWj73qZye1DytCdByzbbnfuWr+zlI5YnM1IiKqXLomZwLhBjXfIKOfl/KuayvaewatwRpTt8KLMxvtw6DHqO1+6SmqcHo4GEFXVwzBUY9CoNxtn3QGA0s0NuJ/HO517sEPnTVRUvuEthI8F7X8a66Pu8cMqulk11A4r5keVd+VJvSo+SYIzRr00VFTkEshefuyAgKpjWptX+bo+7nOxXyG9Q1BTJoas7GRQQS9vlj5vnO5vh+iar+zVK4Y5BARUeXLuGNfOq0DpvlK+4hVSCqkROQoWOmmShPmTr5fug+pzVHF3MyR2J1yBUm5OAt+fY2Zx5Frnbvpj+v4U7VPZnmplnTNHaSQ3tPuvmimGVxGrUqBspo8FVnzsBTOgKyQ0fcL5fcZyj4GpdnYLGbiPci6fLZc37k83w+tSr+zVJ4Y5BAREeWja4xGTUEwD2fByq/A5VUALIa+O7/Egq99HNLUy12jkGtdPvVhDHfGcOqCWV6uYq55ihTSm9CYUZJWAU5NHxoT2c+I+F5HXQuzxAK5bRl5S1O1yVThXZ47WkaTtYLORWrQ4pgZU8FV0KMWTCznOyfWw3eWygqDHCIiIi/S45KzFsEuLHoU1nShNNiwvMClKK2Qip6I8yFrZSyklgs9PnleQzpA8Gp+lWtdDvXhw+qgIqpIvkR+19ws5uVukqZ72PIJcDRzHbucd/Ol1ifi81xKMZaatzRVm0RPqsMENY0utcmatb/g4fxBdWt7EJE2ta1vNU6O75yZz61Cv7P6O1RcnlQeGOQQERF5qd+Lznib1QxGplRzJ3l4XHpxMulq0s3PltpeztncpojClDx4n+iPW8+vmKkNche+iONrHTB5NCN606TZ3OsyjlMmj/fIvlWBvGBSgFSFcKvWQgq7ftc8m+6pK/Veqwcx62H9dAChC8rqX8RxLdwdU+jr2BlznJvu/qskz3YtKW8dqPVnNlO0m6xlfQ4e35eM9RLgJdNNOb0+Q/tyyD7Uv1SM4/5sVJL/d07JlbdRFd9Zqhg1cx9dl5sEWFxcdExJ/SorFhYWMD+/gLn5Ody9O4c7dz7GK2djOHrspMkiv9MvD+HAc91mqXibN282c0REVIn6vvOS79+B999/H/fff79Z8nfy5EkcP37cLBFlGwvVYKTdUagnomW5ffu2mVsa+b3d29trlvwV+nfAdvRIL57paMOmTfdi48Y6PdXV1aG2dgNqN9Sq11rW5BAREVE1kK6jczw0T0TrCoMcIiIiqgKtGFiNns+IqCIwyCEiIiIioqrCIIeIiCrfWIiD+hERUQqDHCIiqlwquNE9Js2o+Rnp6jW796zl0r14OXpoSuUvvU9ljeouaS/ihWZnj06O9774gj7GdJrpHWspeXmdp74eju10l2PWdUmnZ/d65XuOwvX+jPP3SlcKv2aziDar47nkPkaZvNKzj13LOkert7XsdY7r7di2OXpJHUd62TnZx57znBzp6WOUc3Omp6fM70G6h7R8+3BeY53m+Z1xpOn3Oa+ZjBmk9pdxzP93hHIdZ759iIz8rCnj+ufNw1wr97G73+fm2q++Prn259re7/uQ9+fSuV3We2Uy19y1LuPzoxXHIIeIiCqXHjByGIgNYjAGDCdL0/WvTQqduitbe7yS5CiCkUCewsr9+OqE2V4GKHQMAjrR/enMQUFlXI+cBbkcebnOUxeQdQ/FZns1jcIMpOncp+6qN7Ng7X+OMs5KDJ0Jx7ppGW7RLz1PftJFNBzjodjj2jyo5p3HqKcJhN3prmPPkLFdP+JtpqAt46ekrp08s+N17HcRznGd834PPI+x3j/Pbx13HVMB37WmHgRjXd5Bnk2PN5MeEFN3qd0EmI9GJdhjPTmvyf8XA7m+r4XKuAaO618I/T2QDqwzx8rJzf87mJPzOJ0/f37pblnfJ8X5Xj3JuExLPD4qGd8gZ3vwSTNHRERUpnTNRRfQqQpInUBXSe+WjuFUBOjPGKdFxvPoV0HVUgZm9KDHPylylHZPMoCkOtZE5oP3rQOZy5oUhM1sYecYRENqpVqX6p/ZKz1ffvXYqz6n1Oj9ieniBt3MOPYcTEE03ucXQPqdk5civweFHmOGQvbRiIOHg4icyhU5tKK9J46Z1OUN4rB6TzydUIJBTguQ9/pnssY3Ooj24GT6u1GQYj5HD34/fyX7uVzm8dGy+AY5V+OvmzkiIqIypWtyJhBuUPMNqmCVzK7hWDJ919sxer7Ndbd8OWajfRgsZkR/P3InfNJZoMphbCS9z7znKIXmQWvwxozb8j7pBVyz+oYgJs0d7bGRQQTtg3YP3Oh1J9157Pn4fk5+5+Sj2O9BMcdoK3Qf6vs+iracNSSBRjuInMWMCowCqsAeNIFSxvUulPtzkQFCzaqcfK+/mxWgd6qTb23vwaRX4OipyM/Rg9/PX9E/l57f3eUfHy0Pm6sREVHlU4W/irlJ6igQ6eZJE86798uQq1DmLIT1NRa1z9YB09ymfcR6vymw+aXnJXfJB6UZnSqExx3j2rib/NjHuIxj97PkY/ezAsfop/Vg7hqSeqkqkyBSNwFrUMcRUKGOBBuu610o9+eS6JcWcKVjN1mUC6ZrUApvsrakz9Hv5285P5c+392Sf8+oKAxyiIiIvOg70R4FLn3Xvcg79U7OAlGpCsN+x2qz9ykFVOfd9WLOUdeajZoAxcGZXlB+coc7jpkxVbgNtqulPPyOPZ9CPie/c3Iq5JyWeoy2Yj6H+jCGO2M4dcEsu0lecj6JaQR1RGM1EZyZTahQJ8/1KKVCrr8iTdUmUwFGGwZRbJM1pZDP0eb387cSP5e2Yo6PSoZBDhERkadWHOwHIl3Ou+byMHHEeq7Bo2CqC2xBuXtepGXnZY7V9VD+WMj1kL48KyEPVad69MpzjtI7lPPus11w9UvPl59JaW0PItIWMYXwAmUdey7WPoOHPQqrvsfup7Bz0oo6Rqci9qHUhw+rjf2ajVlBZF9fHI3mpNTXC7GuPsQ98loZjuuf87stTdUm0TNqgguZRgtssub3OZby53I5iv6eUakxyCEiIvJRH55AojOWbopkdV9mnvuRB8OlJy17nWnmsqR2c8vPSx9rf9x6BsBMbfCoKWkdMNtZ3dzmPEfpDS3elsqvRnqLkofj/dJV9rmvmSHNktS/jBjH2eRLT+r4bpp1NtexZ8h4fx8aE0mrCaMUNlWB26otUMFHjmP3U9A52XIdo819TCqpqH3I90UFA37kuZxJuwlYKmEy/TyOx/6Xze/65/pu66Zq/Tjo/B7YTdbks8/I03Wcvp9jKX8uFfcxeF27jG1kUp89iv+eVYJwOGzmMvmlr6WauY+uS+CMxcVFx5TUr7JiYWEB8/MLmJufw927c7hz52O8cjaGo8dOmizyO/3yEA48122Wird582YzR0RElajvOy/5/h14//33cf/995slfydPnsTx48fNEhERrbTbt2+bOYsdzESjUf0qvNJs8nu7t7fXLPkr9O+A7eiRXjzT0YZNm+7Fxo11eqqrq0Nt7QbUbqhVr7WsySEiIiIiosLZgU051uDYGOQQEREREVFeXjU4wqsWZ60xyCEiIiIiooK4A5pyDHAEgxwiIqp8Y6GcAyQSEVHp2IFNuQY4gkEOERFVLhXc6J6MZtT8TBTNNTVo9u3SqkjSi1KqtyTTi1JGmse+zPqMdElzjN4/G21OvT+dxyyizem07PWGvX9XRDcWUml596FXZBy/TKmsPNbpa3sp8/i1XNu60hl8ElWncg5wBIMcIiKqXHqQvWEgNojBGDCc9OtydwlkzBMZ3FEPEjiAVhXmhKQb2IQ9pscogjKyvFtTD4KxLs/ugyX40N3Z6vebPCIBFYQA4QmTltqntZx1Pir/nnhfOn8VcPTFm1Kj0Pvvw7zBOeih2le8zRGIONfpaQLhB806N79tc+VPRLRKGOQQEVHl0jU5XUCnKvh3Al01rpqPkgvCHmpEj//hOfZGIw4eDiJyyl2yH8OpCNCfMVaGjOnRr4K0AgY/TGlEuzpXe1T4MZVpsFMlWEvF7cMEcvE+V01Nqax0/kREPhjkEBFR5dI1ORMIN6j5BlWgTpawJieLjCQ/aA22ma9qQh3XKNoyazD0iOeOARpteoT2aXjUCfkKhA8jGDmlBybsi/fj4F6zYin7cK5zD2robqbmVOi2Szg/IqLl8g1ytgefNHNERERlTgUVSx3QvBitA6YZVvuIVbDPEey0HlzJGgwTcAUiCB4u4Sjq7iZoEznyLmZbIqJVVjP30XX53YTFxUXHlNSvsmJhYQHz8wuYm5/D3btzuHPnY7xyNoajx06aLPI7/fKQ70jXhdi8ebOZIyKiStT3nZd8/w4UOtK1jJxNRESVpbe318z5K/TvgO3okV4809GGTZvuxcaNdXqqq6tDbe0G1G6oVa+1DHKIiGjllSLIISKi6rQSQQ6fySEiIiIioqrCIIeIiIiIiKoKgxwiIiIiIqoqDHKIiIiIiKiqMMghIiIiIqKqwiCHiIiIiIiqCoMcIiIiIiKqKhwnh4iIVly+cXKIiGh9q9jBQImIaH1bzs0uIiIiW9kEOURERERERKVQSJDDZ3KIiIiIiKiq+AY524NPmjkiIiIiIqLK4RvkXI2/buaIiIiIiIgqB5urERERERFRVWGQQ0REREREVYVBDhERERERVZVV60L60qVLZo787N6928x54zXMj9dw+fJdQyIiIqK1VFbj5Ejh8rHHHjNL5PbWW28VVEDnNfTHa7h8hVxDIiIiorXEcXKIiIiIiGjdYZBDRERERERVhUEOERERERFVFQY5RERERERUVRjkUGm9cxb79p3FO2aRVgCvMREREVFOVR/kvHN2Hx588MHUtO+sKRq6C4pvPK/XP/+GWV6X3sHZfeo6sQBdHPPdSU3r+0tEREREtOaqOsiRAOfxC3vx5s2buKmnIWw/9ng60LFJwNN9FUfevIlvP2HS1qN3LuECnlX/LuASo5yC6CC6GxhKfcduYgivgWEOERER0dqp4iDnDQwcA470fw0PmRTgCXz7zSPAhUvpmgoJcB6/gL1vnsfX0huuS+9cugDsDeGp7VPqEpkrpGu8nsfzUsNjaip0RYVfeopVK5ROewPPP7gP7viysr0DuWRH3vy2+malPfFtazmzFtGcu6lBPPu813WTa+RKl+1TadV2/YiIiIhWhm+Qsz34pJmrUO/cwNWde7HbHbg8tBXbp2bxU71wAREGOIZVYN+rLtgTTz2LKWcgOHUV9f2mpmLoWXyv+3mrpsIvXXsIXzug0l4zKW+8hu89e6C6rrPUfE1tx1afc3roa+dTtTs3h7bj2IC5FlPHMPuU47qdluaBEhTqKqHUe779hAp6Hp/FATuPN/fiQoRNCYmIiIjy8Q1yrsZfN3NVbEoV6o+owicLjlaBHSYofOIpPDvlaLLmDBZlHa7ixl+qeb90m6R9z2q69cZr38OzT1VhW8Cd9XjYzGZx1sJ0f0/9UN2wvmc7jyBkX4qH67FTXvX1d6QLCdTxPXTbeTx+DFOpAJ2IiIiI/FRvczVdY+PxbImu4TEFUymkf+3beHPvBTye2dZq3ZGmalNTx/C4LlB3q6K1o8nakj2Bp579Hl574w289r1nUXUxjt93TEiAo2sJ7VqYI1YwUywVEKWfKZMps2kcEREREWWr4mdynkDoCFy1NNL855i0yXI8pyPNivpx5Gp3docE64Y0VZvCs46mUtKMKqPJmk2anUlw+I/Nss0n/Qn1IVzt7sbVI6EqLJyb79jjzmZ66lI8b5YdNV06iLRmvT20G3txDHaLNk0HUa40IiIiIsqrioMcCV7OW7U0dnMfqxssnM96MOQhfO28T89r64FXUym7yZo0P0vV8KhJLuF505mDX7qTFN537tTP+lQj/R07cjXdpExN3XgKTzz0NRzYnr4+kdnteWpy1HewXwLCdD7Pv2F1lOFMY/feRERERPnVzH10PZlMAouLi44pqV9lxcLCAubnFzA3P4e7d+dw587HeOVsDEePnTRZFObSpUt47LHHzBK5vfXWW9i9e7dZ8rYm11CaXUWAfncA45fuJmPInK7Hm/m2K4GyvYYVpJBrSERERLSWjh7pxTMdbdi06V5s3Finp7q6OtTWbkDthlr1WlvdNTm09nSHAwdWPsAhIiIiIrIxyKHcHvoazns2Q/NJd3ni2+t8gFUiIiIiWnUMcoiIiIiIqKowyCEiIiIioqqyqh0PUG6FPDRPufEaLh87HiAiIqJyVkjHA0UHOX/3d3fw7/79uaKDHCIiIiIiouVyBzl1dffoIOeee1SAs5Te1XQ0REREREREtIYkLrEnm3M+Z5DDoIaIiIiIiCqNb5CzPfgkampqzBIREREREVFl8A1yrsZfN3NpDHqIiIiIiGitSVxiTzbnfNFdSDPQISIiIiKicuEOdkRGkGNvINvYG3q9iYiIiIiIaK3Y8YozVkkv56nJsd/g5JVGRERERES0WuxgJh3YZMYoqSDHL3jJlwEREREREdFq2rBhQ0Z8IiGKczmrJse5Uiab3thkRkREREREtFbS8YpjXv5JgrLBnhHOeZukSXCzocYKcDZsYJBDRERERERrR+KT2tpaPUmMkp5M/CIbyYKTcwPnJAGOZEhERERERLRWams36LgkFaOYCpnUNP93N5IK1H9YXFxUr0n9as1DLy8sLGB+fl5NC7g7N4fo6SGTPREtx42ffojLb71vllZG6//lV3DffRvNEhEREVHl+1df60Rd3T1qqsM999Tintp7UoGPDn6cQY71mg5yFhfTy3aQM78wj7k5meZU8LOoAyB5TQdG1vbWq/V+eyKiTBdG/xL/r1Nvm6WV8QdDX8JDD/6SWSIiIiIqb84aGamlsV6t4EWap0lQIwHOPffYUy1qN0jTtQKCHPvVDlSsYMYKaCTQkYBHlmUbO8hxv0fmhczLRESZ/uYXd/GXf/nfzNLKaNi2Gffey2amREREVBnsAEfogMUEOxLgWIGOHexYtTfuACcV5EgGViCSbrJmBynOgEUmO9BZWMwMcGSytrO2td+TzptBDhERERER5eYd5FjBTXreBDY11rzdd4A1bcD/H8WBGN1dvoorAAAAAElFTkSuQmCC;" vertex="1" parent="1">
          <mxGeometry x="30" y="105" width="1039.37" height="639.9999515151515" as="geometry" />
        </mxCell>
        <mxCell id="3T2z69GOJzA7XUMwXSeU-2" value="" style="rounded=0;whiteSpace=wrap;html=1;fillColor=none;strokeColor=#007FFF;strokeWidth=4;" vertex="1" parent="1">
          <mxGeometry x="45.12" y="166.73" width="1007.87" height="73.27" as="geometry" />
        </mxCell>
        <mxCell id="3T2z69GOJzA7XUMwXSeU-3" value="" style="rounded=0;whiteSpace=wrap;html=1;fillColor=none;strokeColor=#FF0000;strokeWidth=4;" vertex="1" parent="1">
          <mxGeometry x="45.75" y="250" width="1007.24" height="143.5" as="geometry" />
        </mxCell>
        <mxCell id="3T2z69GOJzA7XUMwXSeU-4" value="" style="rounded=0;whiteSpace=wrap;html=1;fillColor=none;strokeColor=#FF0000;strokeWidth=4;" vertex="1" parent="1">
          <mxGeometry x="60" y="400" width="489.05" height="280" as="geometry" />
        </mxCell>
        <mxCell id="3T2z69GOJzA7XUMwXSeU-5" value="" style="rounded=0;whiteSpace=wrap;html=1;fillColor=none;strokeColor=#FF0000;strokeWidth=4;" vertex="1" parent="1">
          <mxGeometry x="560" y="460" width="480" height="220" as="geometry" />
        </mxCell>
        <mxCell id="3T2z69GOJzA7XUMwXSeU-8" value="" style="rounded=0;whiteSpace=wrap;html=1;fillColor=none;strokeColor=#007FFF;strokeWidth=4;" vertex="1" parent="1">
          <mxGeometry x="560" y="425" width="390" height="35" as="geometry" />
        </mxCell>
        <mxCell id="3T2z69GOJzA7XUMwXSeU-6" value="&lt;div&gt;&lt;b&gt;&lt;font style=&quot;font-size: 16px;&quot;&gt;SPICE Subcircuit Selection&lt;/font&gt;&lt;/b&gt;&lt;/div&gt;&lt;font style=&quot;font-size: 14px;&quot;&gt;If your SPICE netlist contains multiple subcircuits, select the appropriate one here.&lt;/font&gt;&lt;div&gt;&lt;font style=&quot;font-size: 14px;&quot;&gt;Checking &quot;Show&quot; will show the name of the selected subcircuit on your QUCS-S schematic page.&lt;/font&gt;&lt;/div&gt;" style="shape=callout;whiteSpace=wrap;html=1;perimeter=calloutPerimeter;fillColor=#dae8fc;strokeColor=#6c8ebf;direction=south;size=130;position=0.4;spacing=15;" vertex="1" parent="1">
          <mxGeometry x="950" y="382.5" width="580" height="120" as="geometry" />
        </mxCell>
        <mxCell id="3T2z69GOJzA7XUMwXSeU-9" value="&lt;div&gt;&lt;b&gt;&lt;font style=&quot;font-size: 16px;&quot;&gt;SPICE File Selection&lt;/font&gt;&lt;/b&gt;&lt;/div&gt;&lt;font style=&quot;font-size: 14px;&quot;&gt;Point the &lt;i&gt;SPICE Library Device &lt;/i&gt;to your model file.&lt;/font&gt;&lt;div&gt;&lt;font style=&quot;font-size: 14px;&quot;&gt;Checking &quot;Show&quot; will print this file path on your QUCS-S schematic.&lt;/font&gt;&lt;/div&gt;" style="shape=callout;whiteSpace=wrap;html=1;perimeter=calloutPerimeter;fillColor=#dae8fc;strokeColor=#6c8ebf;direction=south;size=30;position=0.31;spacing=8;" vertex="1" parent="1">
          <mxGeometry x="1050" y="130" width="480" height="96.73" as="geometry" />
        </mxCell>
        <mxCell id="3T2z69GOJzA7XUMwXSeU-10" value="&lt;div&gt;&lt;b&gt;&lt;font style=&quot;font-size: 16px;&quot;&gt;Symbol Selection&lt;/font&gt;&lt;/b&gt;&lt;/div&gt;&lt;font style=&quot;font-size: 14px;&quot;&gt;&lt;ul&gt;&lt;li&gt;&lt;font style=&quot;font-size: 14px;&quot;&gt;Choose &quot;Automatic Symbol&quot; to generate a simple rectangular symbol with the appropriate pins.&lt;/font&gt;&lt;/li&gt;&lt;li&gt;&lt;font style=&quot;font-size: 14px;&quot;&gt;Choose &quot;Symbol from Template&quot; to pick a predefined symbol.&lt;/font&gt;&lt;/li&gt;&lt;li&gt;&lt;font style=&quot;font-size: 14px;&quot;&gt;Choose &quot;Symbol from File&quot; to specify your own custom symbol.&lt;/font&gt;&lt;/li&gt;&lt;/ul&gt;&lt;/font&gt;" style="shape=callout;whiteSpace=wrap;html=1;perimeter=calloutPerimeter;fillColor=#f8cecc;strokeColor=#b85450;direction=south;size=30;position=0.31;spacing=8;align=center;" vertex="1" parent="1">
          <mxGeometry x="1050" y="250" width="480" height="120" as="geometry" />
        </mxCell>
        <mxCell id="3T2z69GOJzA7XUMwXSeU-12" value="&lt;div&gt;&lt;b&gt;&lt;font style=&quot;font-size: 16px;&quot;&gt;SPICE Model Text Preview&lt;/font&gt;&lt;/b&gt;&lt;/div&gt;&lt;div&gt;&lt;font style=&quot;font-size: 14px;&quot;&gt;This section displays the text of your chosen SPICE model file.&lt;/font&gt;&lt;/div&gt;" style="shape=callout;whiteSpace=wrap;html=1;perimeter=calloutPerimeter;fillColor=#f8cecc;strokeColor=#b85450;direction=south;size=50;position=0.25;spacing=8;align=center;" vertex="1" parent="1">
          <mxGeometry x="1030" y="570" width="500" height="70" as="geometry" />
        </mxCell>
        <mxCell id="3T2z69GOJzA7XUMwXSeU-13" value="&lt;div&gt;&lt;b&gt;&lt;font style=&quot;font-size: 16px;&quot;&gt;Symbol Pin Mapping&lt;/font&gt;&lt;/b&gt;&lt;/div&gt;&lt;div&gt;&lt;font style=&quot;font-size: 14px;&quot;&gt;If you selected &quot;Symbol from Template&quot; or &quot;Symbol from File&quot;,&amp;nbsp; use this dialog to map the symbol&#39;s pin numbers to the SPICE model&#39;s pin numbers.&lt;/font&gt;&lt;/div&gt;" style="shape=callout;whiteSpace=wrap;html=1;perimeter=calloutPerimeter;fillColor=#f8cecc;strokeColor=#b85450;direction=west;size=40;position=0.88;spacing=8;align=center;base=23;position2=1;" vertex="1" parent="1">
          <mxGeometry x="420" y="680" width="360" height="130" as="geometry" />
        </mxCell>
        <mxCell id="3T2z69GOJzA7XUMwXSeU-14" value="&lt;font style=&quot;font-size: 40px;&quot;&gt;&lt;b style=&quot;&quot;&gt;SPICE Library Device Configuration&lt;/b&gt;&lt;/font&gt;" style="text;strokeColor=none;align=center;fillColor=none;html=1;verticalAlign=middle;whiteSpace=wrap;rounded=0;" vertex="1" parent="1">
          <mxGeometry x="315" y="30" width="970" height="50" as="geometry" />
        </mxCell>
      </root>
    </mxGraphModel>
  </diagram>
</mxfile>
